<svg width="762" height="124" viewBox="0 0 762 124" fill="none" xmlns="http://www.w3.org/2000/svg">
<path d="M71.3555 22.2471L19.7752 22.2471L19.7752 51.9099L61.4679 51.9099L61.4679 71.6851L19.7752 71.6851L19.7752 121.123H0L0 2.4719L71.3555 2.4719V22.2471Z" fill="#E3946A" fill-opacity="0.05"/>
<path d="M139.436 123.595C130.757 123.595 122.627 121.947 115.046 118.651C107.466 115.355 101.204 110.576 96.2598 104.314C87.361 93.3279 82.8017 79.1557 82.582 61.7975C82.582 44.5491 87.1413 30.322 96.2598 19.116C101.204 12.8539 107.466 8.1298 115.046 4.9438C122.627 1.64793 130.757 0 139.436 0C157.783 0 172.175 6.37201 182.612 19.116C191.4 29.8825 195.96 44.1097 196.289 61.7975C195.96 79.2656 191.4 93.4378 182.612 104.314C172.175 117.168 157.783 123.595 139.436 123.595ZM139.436 104.809C151.301 105.028 160.419 100.853 166.791 92.2842C172.394 84.9235 175.196 74.7612 175.196 61.7975C175.196 48.614 172.394 38.4518 166.791 31.3107C160.419 22.7415 151.301 18.5667 139.436 18.7864C133.943 18.6766 128.724 19.7203 123.78 21.9175C118.946 24.1147 115.046 27.2458 112.08 31.3107C106.587 38.3419 103.73 48.5041 103.511 61.7975C103.73 74.8711 106.587 85.0333 112.08 92.2842C115.046 96.3491 118.946 99.4802 123.78 101.677C128.724 103.875 133.943 104.918 139.436 104.809Z" fill="#E3946A" fill-opacity="0.05"/>
<path d="M311.253 2.4719V77.1232C311.253 88.3292 307.793 98.2168 300.871 106.786C291.972 117.992 279.558 123.595 263.628 123.595C256.157 123.595 249.126 122.167 242.534 119.31C235.943 116.344 230.505 112.169 226.22 106.786C219.189 97.9971 215.673 88.1095 215.673 77.1232V2.6367L235.778 2.4719V75.3105C235.778 82.7811 237.701 89.0982 241.546 94.2617C246.929 101.403 254.29 104.973 263.628 104.973C272.637 104.973 279.943 101.403 285.545 94.2617C289.281 89.2081 291.148 82.891 291.148 75.3105V2.4719L311.253 2.4719Z" fill="#E3946A" fill-opacity="0.05"/>
<path d="M354.429 2.4719L409.47 86.0221V2.4719L429.575 2.4719V121.123H409.47L354.429 37.4081V121.123H334.324V2.4719L354.429 2.4719Z" fill="#E3946A" fill-opacity="0.05"/>
<path d="M548.576 61.9623C548.576 43.835 543.413 29.2783 533.086 18.2921C523.528 7.74528 510.509 2.4719 494.03 2.4719L452.666 2.4719V121.123L493.7 121.123C510.509 121.123 523.747 115.795 533.415 105.138C543.522 94.3716 548.576 79.9797 548.576 61.9623ZM527.647 61.9623C527.428 75.2556 524.242 85.4178 518.089 92.449C512.377 98.821 504.247 102.172 493.7 102.501L472.936 102.337V21.4231L493.865 21.2583C504.521 21.5879 512.651 24.9387 518.254 31.3107C524.516 38.6715 527.647 48.8887 527.647 61.9623Z" fill="#E3946A" fill-opacity="0.05"/>
<path d="M644.372 21.0935L587.848 21.0935V52.4043L634.485 52.4043V71.0259H587.848V102.501H644.372V121.123L568.073 121.123V2.4719L644.372 2.4719V21.0935Z" fill="#E3946A" fill-opacity="0.05"/>
<path d="M761.18 121.123L738.603 121.123L718.499 79.5951H687.188V121.123H667.413V2.4719L720.476 2.4719C724.651 2.4719 728.661 3.13107 732.506 4.44942C740.416 6.86639 746.568 11.2059 750.963 17.4681C756.456 24.3894 759.312 32.2446 759.532 41.0335C759.532 49.4929 756.785 57.2931 751.292 64.4342C747.997 68.8287 743.822 72.3992 738.768 75.1457L761.18 121.123ZM687.188 21.2583V60.9735H720.311C726.244 60.9735 731.188 58.3917 735.143 53.2282C737.999 49.383 739.372 45.3181 739.262 41.0335C739.043 35.87 737.395 31.4755 734.319 27.8501C730.254 23.4556 725.585 21.2583 720.311 21.2583L687.188 21.2583Z" fill="#E3946A" fill-opacity="0.05"/>
</svg>
