<svg width="821" height="120" viewBox="0 0 821 120" fill="none" xmlns="http://www.w3.org/2000/svg">
<path d="M54.06 119.373C65.0813 119.373 74.5471 117 82.4571 112.254C90.3672 107.455 96.4316 100.89 100.65 92.5579C104.922 84.2259 107.057 74.6811 107.057 63.9234C107.057 63.607 107.031 62.6314 106.978 60.9967C106.926 59.3619 106.847 58.1227 106.741 57.2789H66.3997V72.229H86.4913C85.0147 82.0375 81.587 89.3938 76.2082 94.2981C70.8293 99.1496 63.8421 101.523 55.2465 101.417C43.8032 101.259 35.2076 97.4357 29.4596 89.9475C23.7116 82.4593 20.864 72.4926 20.9167 60.0475C20.9695 51.7155 22.2615 44.4382 24.7927 38.2156C27.3239 31.9931 31.1207 27.1679 36.1832 23.7402C41.2456 20.3125 47.6001 18.6514 55.2465 18.7569C62.7874 18.8096 69.01 20.8398 73.9142 24.8476C78.8712 28.8554 82.4308 34.2342 84.5928 40.9842L104.052 37.8992C101.151 26.1923 95.5879 17.0694 87.3614 10.5304C79.1876 3.99139 68.0872 0.72189 54.06 0.72189C43.9351 0.72189 34.8385 3.06855 26.7702 7.76186C18.7547 12.4552 12.4002 19.2315 7.70691 28.0907C3.06633 36.95 0.746045 47.6023 0.746045 60.0475C0.746045 72.7036 3.11907 83.4613 7.86511 92.3206C12.6639 101.127 19.0974 107.851 27.1657 112.491C35.234 117.079 44.1987 119.373 54.06 119.373ZM160.675 119.373C169.218 119.373 176.68 117.475 183.061 113.678C189.442 109.828 194.399 104.528 197.932 97.7785C201.518 90.9759 203.311 83.1449 203.311 74.2856C203.311 65.479 201.544 57.7008 198.011 50.9509C194.478 44.1482 189.521 38.8221 183.14 34.9725C176.759 31.1229 169.271 29.1982 160.675 29.1982C152.291 29.1982 144.908 31.0966 138.527 34.8934C132.146 38.6902 127.163 43.9636 123.577 50.7136C119.991 57.4635 118.198 65.3208 118.198 74.2856C118.198 83.0921 119.939 90.8967 123.419 97.6994C126.952 104.449 131.909 109.749 138.29 113.599C144.671 117.448 152.133 119.373 160.675 119.373ZM160.675 101.496C153.345 101.496 147.782 99.0441 143.985 94.1399C140.241 89.1829 138.369 82.5648 138.369 74.2856C138.369 66.2173 140.162 59.6783 143.748 54.6686C147.386 49.6062 153.029 47.0749 160.675 47.0749C168.164 47.0749 173.78 49.5534 177.524 54.5104C181.268 59.4146 183.14 66.0064 183.14 74.2856C183.14 82.3011 181.268 88.8401 177.524 93.9026C173.833 98.965 168.216 101.496 160.675 101.496ZM244.627 119.373C251.43 119.373 257.204 118.266 261.95 116.051C266.749 113.783 270.968 110.276 274.606 105.53V117H291.297V64.5562C291.297 60.8648 291.139 57.4635 290.822 54.3522C290.506 51.1882 289.583 48.1032 288.054 45.0974C285.259 39.4549 280.961 35.3944 275.16 32.9159C269.412 30.4374 262.741 29.1982 255.148 29.1982C245.128 29.1982 237.139 31.3866 231.18 35.7635C225.221 40.1404 221.187 45.9412 219.078 53.1657L236.48 58.6236C237.904 54.2467 240.409 51.1618 243.994 49.3689C247.58 47.5759 251.298 46.6794 255.148 46.6794C260.948 46.6794 265.22 47.8659 267.962 50.239C270.704 52.5593 272.26 56.1715 272.629 61.0758C265.141 62.1832 258.18 63.2642 251.746 64.3189C245.366 65.3208 239.934 66.5601 235.452 68.0366C228.702 70.3569 223.771 73.6528 220.66 77.9242C217.548 82.1429 215.993 87.3636 215.993 93.5862C215.993 98.2795 217.074 102.577 219.236 106.48C221.451 110.382 224.694 113.52 228.965 115.893C233.237 118.213 238.457 119.373 244.627 119.373ZM248.424 104.186C243.942 104.186 240.514 103.157 238.141 101.101C235.821 99.0441 234.661 96.4602 234.661 93.3489C234.661 90.554 235.557 88.2864 237.35 86.5462C239.196 84.806 241.753 83.3294 245.023 82.1166C248.029 81.1146 251.641 80.2445 255.86 79.5062C260.078 78.7152 265.589 77.7924 272.392 76.7377C272.339 78.7416 272.207 80.9828 271.996 83.4613C271.785 85.887 271.284 88.0755 270.493 90.0266C269.86 91.9778 268.621 94.0608 266.775 96.2756C264.983 98.4904 262.557 100.362 259.498 101.892C256.44 103.421 252.748 104.186 248.424 104.186ZM313.472 117H332.535V0.72189L313.472 0.72189V117ZM358.603 43.5945C365.089 44.6492 369.967 43.4099 373.236 39.8768C376.506 36.3436 378.141 31.1229 378.141 24.2148V3.09491L358.603 3.09491V23.4238H368.728C369.15 27.0097 368.649 29.9628 367.225 32.2831C365.854 34.6034 363.349 35.6317 359.71 35.368L358.603 43.5945ZM421.504 119.373C432.525 119.373 441.147 116.921 447.37 112.017C453.645 107.112 456.783 100.362 456.783 91.7669C456.783 85.1224 454.674 79.9017 450.455 76.1049C446.289 72.3081 439.091 69.0913 428.86 66.4546C422.216 64.7671 417.206 63.3433 413.831 62.1832C410.509 61.023 408.294 59.8629 407.187 58.7027C406.079 57.5426 405.526 56.1451 405.526 54.5104C405.526 51.6628 406.897 49.448 409.639 47.8659C412.381 46.2312 415.993 45.5193 420.476 45.7302C425.116 45.9939 428.834 47.1804 431.629 49.2897C434.477 51.3991 436.164 54.2731 436.691 57.9117L456.15 54.4313C455.095 46.7322 451.325 40.615 444.839 36.0799C438.352 31.4921 430.126 29.1982 420.159 29.1982C409.982 29.1982 401.834 31.5712 395.717 36.3172C389.6 41.0633 386.541 47.4441 386.541 55.4596C386.541 61.8404 388.677 66.8765 392.949 70.5679C397.273 74.2592 404.787 77.5024 415.492 80.2972C421.926 81.9847 426.672 83.4085 429.73 84.5687C432.842 85.6761 434.872 86.8099 435.821 87.97C436.77 89.1302 437.245 90.6858 437.245 92.637C437.245 95.801 435.979 98.3059 433.448 100.152C430.917 101.944 427.384 102.841 422.849 102.841C417.628 102.841 413.277 101.628 409.797 99.2023C406.369 96.7766 404.181 93.4543 403.232 89.2356L383.773 92.2415C385.197 100.837 389.205 107.508 395.796 112.254C402.388 117 410.957 119.373 421.504 119.373ZM542.878 119.373C552.423 119.373 560.491 117.053 567.083 112.412C573.674 107.719 578.289 101.022 580.925 92.3206L561.467 87.97C559.99 92.3469 557.775 95.6955 554.822 98.0158C551.922 100.336 547.94 101.496 542.878 101.496C535.706 101.496 530.301 98.9914 526.662 93.9817C523.076 88.972 521.257 82.4066 521.204 74.2856C521.257 66.4283 522.997 59.942 526.425 54.8268C529.905 49.6589 535.39 47.0749 542.878 47.0749C547.255 47.0749 551.157 48.3669 554.585 50.9509C558.013 53.4821 560.465 57.0416 561.941 61.6295L580.925 56.4879C578.921 48.0505 574.545 41.406 567.795 36.5545C561.045 31.6503 552.818 29.1982 543.115 29.1982C534.467 29.1982 527.005 31.1493 520.73 35.0516C514.454 38.9012 509.603 44.2273 506.175 51.03C502.8 57.7799 501.086 65.5318 501.034 74.2856C501.086 82.8812 502.747 90.5803 506.017 97.383C509.339 104.186 514.112 109.565 520.334 113.52C526.557 117.422 534.071 119.373 542.878 119.373ZM598.358 117L617.422 117V0.72189H598.358V117ZM673.152 119.452C679.322 119.452 684.727 118.397 689.368 116.288C694.061 114.126 697.963 111.199 701.074 107.508V117H717.923V31.5712H698.781V75.4721C698.781 82.3802 697.779 87.7327 695.775 91.5296C693.824 95.2737 691.319 97.884 688.26 99.3605C685.202 100.784 682.038 101.496 678.768 101.496C674.233 101.496 670.621 100.521 667.931 98.5695C665.242 96.5656 663.238 94.0608 661.92 91.055C660.654 87.9964 659.81 84.8324 659.388 81.5629C659.019 78.2934 658.835 75.3403 658.835 72.7036V31.5712L639.534 31.5712V79.2689C639.534 81.2728 639.692 83.9359 640.009 87.2581C640.378 90.5803 641.142 94.0871 642.303 97.7785C643.463 101.47 645.256 104.977 647.681 108.299C650.107 111.568 653.377 114.258 657.49 116.367C661.656 118.424 666.877 119.452 673.152 119.452ZM739.988 117H756.837V110.672C759.895 113.414 763.455 115.55 767.515 117.079C771.576 118.608 776.137 119.373 781.2 119.373C789.11 119.373 795.965 117.396 801.766 113.44C807.619 109.485 812.155 104.107 815.371 97.3039C818.588 90.5012 820.196 82.8285 820.196 74.2856C820.196 65.6372 818.562 57.9117 815.292 51.1091C812.075 44.3064 807.488 38.9539 801.529 35.0516C795.57 31.1493 788.556 29.1982 780.488 29.1982C776.216 29.1982 772.314 29.7782 768.781 30.9384C765.248 32.0458 762.057 33.6542 759.21 35.7635V3.09491H739.988V117ZM778.273 102.287C770.627 102.287 765.142 99.7033 761.82 94.5354C758.498 89.3147 756.837 82.5648 756.837 74.2856C756.837 65.9536 758.472 59.2037 761.741 54.0358C765.063 48.8679 770.363 46.2839 777.64 46.2839C782.755 46.2839 786.948 47.5495 790.217 50.0808C793.54 52.5593 795.992 55.9342 797.574 60.2057C799.208 64.4244 800.026 69.1177 800.026 74.2856C800.026 79.5062 799.235 84.2259 797.653 88.4446C796.123 92.6633 793.75 96.0383 790.534 98.5695C787.317 101.048 783.23 102.287 778.273 102.287Z" fill="#E3946A" fill-opacity="0.05"/>
</svg>
