<svg width="172" height="46" viewBox="0 0 172 46" fill="none" xmlns="http://www.w3.org/2000/svg">
<path d="M8.92343 35.0625C9.53972 35.8544 9.84787 36.8726 9.84787 38.117C9.84787 39.382 9.53972 40.4053 8.92343 41.1869C8.20442 42.0816 7.24403 42.529 6.04226 42.529C4.95347 42.529 4.08553 42.1896 3.43842 41.5108V46H2.05176V33.9672H3.28434V34.9082C3.98281 34.1266 4.90211 33.7358 6.04226 33.7358C7.26457 33.7358 8.22496 34.178 8.92343 35.0625ZM7.8141 40.3384C8.19415 39.8345 8.38417 39.094 8.38417 38.117C8.38417 37.1605 8.18901 36.4252 7.79869 35.911C7.36729 35.2939 6.70991 34.9853 5.82655 34.9853C5.00483 34.9853 4.37313 35.2682 3.93145 35.8338C3.50005 36.3789 3.28434 37.1399 3.28434 38.117C3.28434 39.1146 3.50005 39.8808 3.93145 40.4156C4.39367 40.9812 5.04078 41.264 5.87278 41.264C6.73559 41.264 7.38269 40.9555 7.8141 40.3384Z" fill="white"/>
<path d="M15.3473 33.7358C15.7479 33.7152 16.1434 33.7769 16.5337 33.9209V35.2167C16.1228 35.0625 15.6914 35.0008 15.2395 35.0316C14.5821 35.0522 14.0582 35.2579 13.6679 35.6487C13.3495 35.9469 13.1441 36.2915 13.0516 36.6823C12.9695 37.0628 12.9284 37.5719 12.9284 38.2095V42.2976H11.5417V33.9672H12.7743V35.1859C12.9592 34.8774 13.2057 34.6048 13.5138 34.3683C14.0274 33.9672 14.6386 33.7564 15.3473 33.7358Z" fill="white"/>
<path d="M18.1524 31.1441H19.5237V32.5634H18.1524V31.1441ZM18.1524 33.9672H19.5237V42.2976H18.1524V33.9672Z" fill="white"/>
<path d="M27.1253 33.9672H28.5273L25.4921 42.2976H24.1054L21.0702 33.9672H22.4568L24.7988 40.539L27.1253 33.9672Z" fill="white"/>
<path d="M36.283 42.2976H35.0658V41.0326C34.3673 42.0302 33.3094 42.529 31.8919 42.529C31.0805 42.529 30.4179 42.2976 29.9044 41.8348C29.4011 41.372 29.1494 40.7601 29.1494 39.999C29.1494 38.9397 29.6373 38.1632 30.6131 37.6696C30.8596 37.5462 31.1678 37.4382 31.5375 37.3456C31.9176 37.2428 32.2309 37.1708 32.4774 37.1297C32.7342 37.0885 33.1553 37.0268 33.7408 36.9445C34.3365 36.8623 34.7217 36.8057 34.8963 36.7749C34.8758 36.2092 34.6806 35.7824 34.3109 35.4944C33.9514 35.1962 33.4737 35.0471 32.878 35.0471C31.8919 35.0471 31.1113 35.3864 30.5361 36.0652L29.6733 35.1396C30.495 34.2037 31.6094 33.7358 33.0166 33.7358C33.9 33.7358 34.6498 34.0083 35.2661 34.5534C35.944 35.1191 36.283 36.0035 36.283 37.2068V42.2976ZM34.5882 40.0299C34.6909 39.8448 34.7679 39.6339 34.8193 39.3974C34.8707 39.1506 34.8963 38.9346 34.8963 38.7495C34.9066 38.5643 34.9117 38.2815 34.9117 37.901C33.5456 38.117 32.652 38.2764 32.2309 38.3792C31.7276 38.4821 31.3167 38.662 30.9983 38.9192C30.6799 39.1763 30.5207 39.4951 30.5207 39.8756C30.5207 40.3076 30.6747 40.6572 30.9829 40.9246C31.291 41.192 31.6813 41.3257 32.1538 41.3257C33.294 41.3257 34.1054 40.8938 34.5882 40.0299Z" fill="white"/>
<path d="M40.4343 35.0933V39.0734C40.4343 39.8345 40.4959 40.3178 40.6192 40.5235C40.7938 40.8835 41.1122 41.0892 41.5745 41.1406C42.0675 41.1715 42.5246 41.1509 42.9457 41.0789V42.2976C42.2678 42.4724 41.6155 42.493 40.989 42.3593C40.2083 42.1948 39.6691 41.8194 39.3712 41.2332C39.1658 40.8115 39.0631 40.1173 39.0631 39.1506V35.0933H37.3683V33.9672H39.0631V31.6532H40.4343V33.9672H42.9457V35.0933H40.4343Z" fill="white"/>
<path d="M45.589 38.5952C45.6404 39.3254 45.8355 39.9168 46.1745 40.3693C46.6162 40.9863 47.2838 41.2949 48.1775 41.2949C49.3279 41.2949 50.2112 40.8064 50.8275 39.8293L51.8598 40.5081C51.0792 41.8554 49.8723 42.529 48.2391 42.529C47.6228 42.529 47.0373 42.4107 46.4827 42.1742C45.9383 41.9377 45.4863 41.5983 45.1268 41.156C44.49 40.3436 44.1716 39.3511 44.1716 38.1787C44.1716 36.9137 44.49 35.8852 45.1268 35.0933C45.8664 34.1883 46.8832 33.7358 48.1775 33.7358C49.4717 33.7358 50.4886 34.1883 51.2281 35.0933C51.9368 35.9778 52.2501 37.1451 52.168 38.5952H45.589ZM48.1775 34.9545C47.2838 34.9545 46.6162 35.263 46.1745 35.8801C45.8869 36.2503 45.702 36.7389 45.6198 37.3456H50.7351C50.6529 36.7491 50.468 36.2606 50.1804 35.8801C49.7285 35.263 49.0608 34.9545 48.1775 34.9545Z" fill="white"/>
<path d="M64.3137 35.8184L63.0195 36.3738C62.9579 36.2092 62.8706 36.0652 62.7576 35.9418C62.3262 35.335 61.6791 35.0316 60.8163 35.0316C59.9535 35.0316 59.3064 35.335 58.875 35.9418C58.4846 36.4355 58.2792 37.1657 58.2587 38.1324C58.2792 39.0786 58.4846 39.8088 58.875 40.323C59.3166 40.9195 59.9637 41.2177 60.8163 41.2177C61.6688 41.2177 62.3159 40.9195 62.7576 40.323C62.85 40.1996 62.9322 40.0607 63.0041 39.9065L64.3137 40.4618C64.1494 40.7498 64.0005 40.9812 63.8669 41.156C63.1068 42.0919 62.09 42.5496 60.8163 42.529C59.5426 42.5496 58.5257 42.0919 57.7656 41.156C57.1493 40.3847 56.8309 39.3768 56.8104 38.1324C56.8309 36.888 57.1493 35.875 57.7656 35.0933C58.4949 34.1883 59.5118 33.7358 60.8163 33.7358C62.1105 33.7358 63.1274 34.1883 63.8669 35.0933C64.0621 35.3607 64.211 35.6024 64.3137 35.8184Z" fill="white"/>
<path d="M69.2374 42.529C67.9431 42.529 66.9263 42.0713 66.1867 41.156C65.5499 40.3436 65.2314 39.3305 65.2314 38.117C65.2314 36.8931 65.5499 35.8852 66.1867 35.0933C66.5359 34.6614 66.9776 34.3271 67.5117 34.0906C68.0561 33.8541 68.6313 33.7358 69.2374 33.7358C70.5521 33.7358 71.569 34.1883 72.288 35.0933C72.9351 35.875 73.2587 36.8828 73.2587 38.117C73.2587 39.3408 72.9351 40.3538 72.288 41.156C71.5587 42.0713 70.5418 42.529 69.2374 42.529ZM71.1941 40.323C71.5947 39.7985 71.795 39.0631 71.795 38.117C71.795 37.1605 71.5947 36.4303 71.1941 35.9264C70.7627 35.3299 70.1104 35.0316 69.2374 35.0316C68.3745 35.0316 67.7274 35.3299 67.296 35.9264C66.8954 36.4303 66.6951 37.1605 66.6951 38.117C66.6951 39.0631 66.8954 39.7985 67.296 40.323C67.7377 40.9195 68.3848 41.2177 69.2374 41.2177C70.1002 41.2177 70.7524 40.9195 71.1941 40.323Z" fill="white"/>
<path d="M85.3833 34.3991C85.7736 34.7488 86.0201 35.1242 86.1228 35.5253C86.2358 35.9264 86.2923 36.4766 86.2923 37.1759L86.2769 42.2976H84.9056L84.921 37.2531C84.921 36.7903 84.88 36.4303 84.7978 36.1732C84.7259 35.9058 84.5615 35.659 84.3047 35.4327C83.9761 35.1242 83.5857 34.9699 83.1338 34.9699C82.5483 34.9699 82.081 35.1859 81.7317 35.6178C81.4544 35.9675 81.3157 36.4303 81.3157 37.0063V37.1759L81.3003 42.2976H79.9291L79.9445 37.2531C79.9445 36.7903 79.9034 36.4303 79.8212 36.1732C79.7493 35.9058 79.585 35.659 79.3282 35.4327C78.9995 35.1242 78.6092 34.9699 78.1572 34.9699C77.5718 34.9699 77.1044 35.1859 76.7552 35.6178C76.4778 35.9675 76.3392 36.4303 76.3392 37.0063V42.2976H74.9525V33.9672H76.1851V34.8619C76.7603 34.1215 77.5358 33.7512 78.5116 33.7512C79.3025 33.7512 79.9342 33.9672 80.4067 34.3991C80.6429 34.6048 80.8381 34.8465 80.9922 35.1242C81.023 35.0625 81.0435 35.0265 81.0538 35.0162C81.3209 34.6151 81.6701 34.3066 82.1015 34.0906C82.5329 33.8643 82.9951 33.7512 83.4882 33.7512C84.2791 33.7512 84.9108 33.9672 85.3833 34.3991Z" fill="white"/>
<path d="M98.7299 34.3991C99.1202 34.7488 99.3667 35.1242 99.4694 35.5253C99.5824 35.9264 99.6389 36.4766 99.6389 37.1759L99.6235 42.2976H98.2522L98.2676 37.2531C98.2676 36.7903 98.2266 36.4303 98.1444 36.1732C98.0725 35.9058 97.9081 35.659 97.6514 35.4327C97.3227 35.1242 96.9324 34.9699 96.4804 34.9699C95.8949 34.9699 95.4276 35.1859 95.0783 35.6178C94.801 35.9675 94.6623 36.4303 94.6623 37.0063V37.1759L94.6469 42.2976H93.2757L93.2911 37.2531C93.2911 36.7903 93.25 36.4303 93.1678 36.1732C93.0959 35.9058 92.9316 35.659 92.6748 35.4327C92.3461 35.1242 91.9558 34.9699 91.5038 34.9699C90.9184 34.9699 90.451 35.1859 90.1018 35.6178C89.8244 35.9675 89.6858 36.4303 89.6858 37.0063V42.2976H88.2991V33.9672H89.5317V34.8619C90.1069 34.1215 90.8824 33.7512 91.8582 33.7512C92.6491 33.7512 93.2808 33.9672 93.7533 34.3991C93.9895 34.6048 94.1847 34.8465 94.3388 35.1242C94.3696 35.0625 94.3901 35.0265 94.4004 35.0162C94.6675 34.6151 95.0167 34.3066 95.4481 34.0906C95.8795 33.8643 96.3417 33.7512 96.8348 33.7512C97.6257 33.7512 98.2574 33.9672 98.7299 34.3991Z" fill="white"/>
<path d="M107.423 33.9672H108.81V42.2976H107.578V41.2177C107.454 41.3823 107.346 41.5108 107.254 41.6034C106.72 42.1588 106.021 42.457 105.159 42.4982C104.152 42.5701 103.33 42.3336 102.693 41.7885C102.2 41.3874 101.872 40.8784 101.707 40.2613C101.553 39.6339 101.481 38.8832 101.492 38.009V33.9672H102.878V37.9627C102.878 39.3614 103.171 40.2921 103.757 40.7549C104.167 41.084 104.676 41.2332 105.282 41.2023C105.806 41.1817 106.247 41.0172 106.607 40.7087C106.977 40.4001 107.218 39.9579 107.331 39.382C107.393 39.1248 107.423 38.7392 107.423 38.225V33.9672Z" fill="white"/>
<path d="M117.398 34.4763C117.891 34.8774 118.214 35.3916 118.368 36.0189C118.523 36.636 118.594 37.3816 118.584 38.2558V42.2976H117.197V38.3021C117.197 37.613 117.136 37.0422 117.013 36.5897C116.9 36.1372 116.674 35.7773 116.335 35.5099C115.934 35.1808 115.421 35.0265 114.794 35.0471C114.26 35.0779 113.823 35.2425 113.484 35.5407C113.104 35.8595 112.863 36.3069 112.76 36.8828C112.688 37.2119 112.652 37.7982 112.652 38.6415V38.6569V42.2976H111.281V33.9672H112.498V35.0625C112.529 35.0111 112.642 34.8774 112.837 34.6614C113.351 34.106 114.049 33.8078 114.933 33.7666C115.939 33.6947 116.761 33.9312 117.398 34.4763Z" fill="white"/>
<path d="M120.736 31.1441H122.108V32.5634H120.736V31.1441ZM120.736 33.9672H122.108V42.2976H120.736V33.9672Z" fill="white"/>
<path d="M126.566 35.0933V39.0734C126.566 39.8345 126.628 40.3178 126.751 40.5235C126.926 40.8835 127.244 41.0892 127.706 41.1406C128.199 41.1715 128.656 41.1509 129.077 41.0789V42.2976C128.4 42.4724 127.747 42.493 127.121 42.3593C126.34 42.1948 125.801 41.8194 125.503 41.2332C125.298 40.8115 125.195 40.1173 125.195 39.1506V35.0933H123.5V33.9672H125.195V31.6532H126.566V33.9672H129.077V35.0933H126.566Z" fill="white"/>
<path d="M136.697 33.9672H138.084L134.34 43.8094C134.001 44.6836 133.611 45.2801 133.169 45.5989C132.81 45.8663 132.281 46 131.582 46H131.382V44.6733L131.644 44.7042C132.024 44.7247 132.306 44.6682 132.491 44.5345C132.748 44.3494 133.087 43.686 133.508 42.5444L129.995 33.9672H131.397L134.155 40.7704L136.697 33.9672Z" fill="white"/>
<path d="M149.752 35.8184L148.458 36.3738C148.396 36.2092 148.309 36.0652 148.196 35.9418C147.765 35.335 147.118 35.0316 146.255 35.0316C145.392 35.0316 144.745 35.335 144.313 35.9418C143.923 36.4355 143.718 37.1657 143.697 38.1324C143.718 39.0786 143.923 39.8088 144.313 40.323C144.755 40.9195 145.402 41.2177 146.255 41.2177C147.107 41.2177 147.754 40.9195 148.196 40.323C148.289 40.1996 148.371 40.0607 148.443 39.9065L149.752 40.4618C149.588 40.7498 149.439 40.9812 149.305 41.156C148.545 42.0919 147.528 42.5496 146.255 42.529C144.981 42.5496 143.964 42.0919 143.204 41.156C142.588 40.3847 142.269 39.3768 142.249 38.1324C142.269 36.888 142.588 35.875 143.204 35.0933C143.933 34.1883 144.95 33.7358 146.255 33.7358C147.549 33.7358 148.566 34.1883 149.305 35.0933C149.501 35.3607 149.649 35.6024 149.752 35.8184Z" fill="white"/>
<path d="M151.363 42.2976H152.734V30.959H151.363V42.2976Z" fill="white"/>
<path d="M160.665 33.9672H162.052V42.2976H160.819V41.2177C160.696 41.3823 160.588 41.5108 160.496 41.6034C159.962 42.1588 159.263 42.457 158.401 42.4982C157.394 42.5701 156.572 42.3336 155.935 41.7885C155.442 41.3874 155.114 40.8784 154.949 40.2613C154.795 39.6339 154.723 38.8832 154.734 38.009V33.9672H156.12V37.9627C156.12 39.3614 156.413 40.2921 156.998 40.7549C157.409 41.084 157.918 41.2332 158.524 41.2023C159.048 41.1817 159.489 41.0172 159.849 40.7087C160.219 40.4001 160.46 39.9579 160.573 39.382C160.635 39.1248 160.665 38.7392 160.665 38.225V33.9672Z" fill="white"/>
<path d="M171.076 35.0625C171.692 35.8544 172 36.8726 172 38.117C172 39.382 171.692 40.4053 171.076 41.1869C170.357 42.0816 169.397 42.529 168.195 42.529C167.024 42.529 166.105 42.1279 165.437 41.3257V42.2976H164.204V31.1904H165.591V34.754C166.3 34.0752 167.168 33.7358 168.195 33.7358C169.417 33.7358 170.377 34.178 171.076 35.0625ZM169.967 40.3384C170.347 39.8345 170.537 39.094 170.537 38.117C170.537 37.1605 170.342 36.4252 169.951 35.911C169.52 35.2939 168.862 34.9853 167.979 34.9853C167.157 34.9853 166.526 35.2682 166.084 35.8338C165.653 36.3789 165.437 37.1399 165.437 38.117C165.437 39.1146 165.653 39.8808 166.084 40.4156C166.546 40.9812 167.193 41.264 168.025 41.264C168.888 41.264 169.535 40.9555 169.967 40.3384Z" fill="white"/>
<path d="M16.5181 15.3164L20.6553 16.5455C20.2263 17.8271 19.6236 18.9511 18.8472 19.9176C17.8665 21.1362 16.6611 22.0606 15.231 22.6909C13.8213 23.3212 12.3196 23.6364 10.7261 23.6364C9.09161 23.6364 7.55932 23.3107 6.12918 22.6594C4.69903 22.0081 3.52428 21.0941 2.6049 19.9176C0.8683 17.7535 0 15.0537 0 11.8182C0 8.54061 0.8683 5.8303 2.6049 3.68727C3.54471 2.46869 4.71947 1.55475 6.12918 0.945454C7.55932 0.315151 9.09161 0 10.7261 0C14.1788 0 16.8859 1.22909 18.8472 3.68727C19.7462 4.84283 20.4204 6.18748 20.8698 7.72121L16.5794 8.47758C16.2934 7.55313 15.9461 6.82828 15.5375 6.30303C14.4138 4.76929 12.81 4.00242 10.7261 4.00242C8.60128 4.00242 6.99748 4.76929 5.91465 6.30303C4.95442 7.56364 4.45387 9.40202 4.41301 11.8182C4.45387 14.2133 4.95442 16.0517 5.91465 17.3333C6.44585 18.0687 7.14049 18.636 7.99857 19.0352C8.85666 19.4343 9.76582 19.6234 10.7261 19.6024C11.6863 19.6234 12.5955 19.4343 13.4535 19.0352C14.3116 18.636 15.0063 18.0687 15.5375 17.3333C15.9665 16.724 16.2934 16.0517 16.5181 15.3164Z" fill="white"/>
<path d="M38.3667 0.472727H42.5959V23.1636H38.3667V8.03636L28.7746 23.1636H24.5454V0.472727H28.7746V15.6L38.3667 0.472727Z" fill="white"/>
<path d="M60.9336 0.472727H65.1014V23.1636H60.9336V15.4739H51.0656V23.1636H46.8978V0.472727H51.0656V11.4715H60.9336V0.472727Z" fill="white"/>
<path d="M88.0877 19.1612H89.4668V26H85.5441V23.1636H72.3051V26H68.4131V19.1612C69.9454 19.1612 70.9158 17.3543 71.3244 13.7406L72.8261 0.472727H88.0877V19.1612ZM84.1957 19.1612V4.47515H76.3197L75.2165 14.2133C74.9305 16.6925 74.4605 18.3418 73.8068 19.1612H84.1957Z" fill="white"/>
<path d="M106.975 0.472727H111.204V23.1636H106.975V8.03636L97.383 23.1636H93.1539V0.472727H97.383V15.6L106.975 0.472727Z" fill="white"/>
<path d="M133.894 23.1636H128.623L121.85 13.8352H119.735V23.1636H115.506V0.472727H119.735V9.80121H121.819L128.163 0.472727H133.311L125.65 11.7867L133.894 23.1636Z" fill="white"/>
<path d="M149.931 23.1636L148.859 19.6024H139.849L138.807 23.1636H134.516L141.258 0.472727H147.479L154.222 23.1636H149.931ZM141.044 15.6H147.663L144.323 4.50667L141.044 15.6Z" fill="white"/>
<path d="M172 0.472727V4.47515H165.043V23.1636H160.876V4.47515H153.919V0.472727H172Z" fill="white"/>
</svg>
