<svg width="45" height="34" viewBox="0 0 45 34" fill="none" xmlns="http://www.w3.org/2000/svg">
<path d="M16.282 4.90072V7.66642L20.8682 5.31377V2.18578L16.282 4.90072ZM16.282 24.7695L20.8682 22.4168V18.4691L16.282 20.8217V24.7695ZM22.4364 22.3235L28.4806 24.2612V20.1974L22.4364 18.2597V22.3235ZM28.4806 25.8982L22.4364 23.9611V31.8807H28.4806V25.8982ZM20.8682 24.1699L16.282 26.5225V31.8807H20.8682V24.1699ZM16.282 19.068L20.8682 16.7154V12.7683L16.282 15.1209V19.068ZM22.4364 16.6227L28.4806 18.5598V14.496L22.4364 12.5589V16.6227ZM16.282 13.3672L20.8682 11.0146V7.06684L16.282 9.42012V13.3672ZM22.4364 10.9219L28.4806 12.859V8.79516L22.4364 6.85809V10.9219ZM22.4364 5.22114L28.4806 7.1582V4.24277L22.4364 2.01194V5.22114ZM34.7903 18.299V31.8807H38.782V27.5459V19.6054L34.7903 18.299ZM33.2221 31.8807V18.4278L30.2862 19.8795V31.8807H33.2221ZM11.8027 18.4399V31.8807H14.7138V19.8795L11.8027 18.4399ZM10.2346 31.8807V18.2908L6.21864 19.6054V27.5459V31.8807H10.2346ZM1.56818 28.7686V31.8807H4.65045V28.7223L2.88243 28.2172L1.56818 28.7686ZM0 27.7369L2.79142 26.5657L4.65045 27.0974V18.4767L11.1154 16.3594L14.7138 18.1391V4.01372L21.4963 0L30.0482 3.15717V18.2572L33.8846 16.3594L40.3495 18.4767V27.0974L42.2092 26.5657L45 27.7369V33.4434C29.9998 33.4434 15.0002 33.4434 0 33.4434V27.7369ZM43.4318 31.8807V28.7686L42.1182 28.2172L40.3495 28.7223V31.8807H43.4318Z" fill="#ED8853"/>
</svg>
