<svg width="43" height="35" viewBox="0 0 43 35" fill="none" xmlns="http://www.w3.org/2000/svg">
<path d="M42.612 25.1508C42.2381 24.6433 41.6369 24.3404 41.0027 24.3404C40.7185 24.3404 40.4439 24.3996 40.1871 24.5166L33.7702 27.4116V18.9963C34.9185 18.5262 35.7021 17.3105 35.7021 15.958V8.45951C35.7021 6.66632 34.374 5.20797 32.7414 5.20797H27.8035V3.43504C27.8035 1.78521 26.4611 0.443359 24.8113 0.443359H11.3644C9.71157 0.443359 8.36719 1.78774 8.36719 3.44011V5.20797H3.43137C1.79521 5.20797 0.464 6.66632 0.464 8.45951V15.958C0.464 17.312 1.25016 18.5282 2.40257 18.9973V21.4935H0.75172C0.336856 21.4935 0 21.8309 0 22.2453V34.0924C0 34.5073 0.336856 34.8442 0.75172 34.8442H13.2777C13.6925 34.8442 14.0294 34.5073 14.0294 34.0924V33.1194L18.2849 34.792C18.3726 34.8269 18.4653 34.8442 18.5605 34.8442H18.5726C18.5757 34.8442 29.9498 34.5326 29.9498 34.5326C31.3656 34.4946 32.7454 34.0676 33.9404 33.2972L42.0867 28.0093C42.6586 27.6425 43 27.0149 43 26.3306C43 25.898 42.8653 25.4897 42.612 25.1508ZM9.87063 3.44011C9.87063 2.61696 10.5408 1.9468 11.3644 1.9468H24.8113C25.6319 1.9468 26.3001 2.61443 26.3001 3.43504V5.20797H9.87063V3.44011ZM1.96744 15.958V8.45951C1.96744 7.49555 2.62443 6.71141 3.43137 6.71141H32.7414C33.5447 6.71141 34.1987 7.49555 34.1987 8.45951V15.958C34.1987 16.8399 33.6425 17.586 32.9019 17.6939C32.8498 17.702 32.7976 17.7061 32.7414 17.7061H3.43137C3.37463 17.7061 3.32145 17.702 3.26269 17.6929C2.52414 17.5855 1.96744 16.8394 1.96744 15.958ZM20.53 19.2095V20.7707C20.53 21.219 20.1683 21.5837 19.724 21.5837H16.4487C16.0004 21.5837 15.6357 21.219 15.6357 20.7707V19.2095H20.53ZM12.526 33.3407H1.50344V22.997H12.526V33.3407ZM13.2777 21.4935H3.90601V19.2095H14.1322V20.7707C14.1322 22.0482 15.1712 23.0871 16.4487 23.0871H19.724C20.9975 23.0871 22.0334 22.0482 22.0334 20.7707V19.2095H32.2667V27.7226C32.2667 27.7991 32.2617 27.874 32.2515 27.9465C31.8681 28.029 31.4694 28.0706 31.0632 28.0706C30.8676 28.0706 30.6706 28.061 30.4816 28.0427L29.4513 27.912C29.4883 27.8406 29.5212 27.7661 29.5496 27.6892C29.7365 27.176 29.7026 26.6006 29.4564 26.1118C29.2112 25.625 28.7735 25.2577 28.2559 25.1042L23.201 23.5907C22.7299 23.4443 22.2355 23.3703 21.732 23.3703H14.0294V22.2453C14.0294 21.8309 13.6925 21.4935 13.2777 21.4935ZM41.2706 26.7455L33.1228 32.0348C32.1624 32.6544 31.051 32.9983 29.9092 33.0292L18.6927 33.3362L14.0294 31.503V24.8737H21.732C22.0841 24.8737 22.4295 24.9259 22.7623 25.0298L27.8263 26.5459C27.9509 26.5828 28.0527 26.669 28.113 26.7885C28.1743 26.9101 28.1829 27.0463 28.1378 27.1699C28.0669 27.3599 27.8927 27.483 27.7214 27.484L22.0871 26.98C22.079 26.979 22.0324 26.9774 22.0238 26.9774C21.6383 26.9774 21.3166 27.2657 21.2751 27.6481C21.2315 28.0534 21.5248 28.4247 21.9285 28.4753L30.313 29.537C30.5612 29.5619 30.8144 29.5745 31.0657 29.5745C31.7495 29.5745 32.4212 29.4793 33.0625 29.2914C33.0625 29.2914 33.0767 29.2868 33.0818 29.2853C33.4171 29.1926 33.7494 29.072 34.0685 28.9272L40.8066 25.8868C40.8694 25.8585 40.9363 25.8443 41.0052 25.8443C41.1612 25.8443 41.3096 25.9193 41.4044 26.0479C41.4662 26.1305 41.4966 26.2227 41.4966 26.3306C41.4966 26.4998 41.4125 26.6543 41.2706 26.7455Z" fill="#ED8853"/>
<path d="M15.3914 12.1499H20.7795C21.1944 12.1499 21.5313 11.8131 21.5313 11.3982C21.5313 10.9833 21.1944 10.6465 20.7795 10.6465H15.3914C14.9765 10.6465 14.6396 10.9833 14.6396 11.3982C14.6396 11.8131 14.9765 12.1499 15.3914 12.1499Z" fill="#ED8853"/>
</svg>
