<svg width="36" height="43" viewBox="0 0 36 43" fill="none" xmlns="http://www.w3.org/2000/svg">
<path d="M35.5406 40.2011V30.0217C35.5406 29.0878 35.0748 28.2289 34.2468 27.6958L23.8388 21.8505C25.7981 19.5267 27.3263 16.2542 27.9294 13.133L28.006 13.2115C28.0142 13.1201 28.2309 10.717 28.2171 10.8695L28.2065 10.8586C28.4407 4.86235 23.6335 0 17.7742 0C11.8346 0 6.6591 5.0628 7.40368 11.7909L7.38198 11.8004C7.85846 15.342 9.35841 19.1029 11.7348 21.8944L1.24625 27.7246C0.465868 28.2293 0 29.0882 0 30.0217V40.2011C0 41.679 1.20219 42.8812 2.68007 42.8812H32.8606C34.3385 42.8812 35.5406 41.679 35.5406 40.2011ZM33.7539 30.0217V40.2011C33.7539 40.6936 33.3531 41.0945 32.8606 41.0945H17.7914C18.0303 41.0886 18.2582 40.9914 18.422 40.8166L20.7736 38.3084C20.9612 38.1082 21.0467 37.8329 21.0048 37.5616L19.3791 26.9878L19.9742 24.8017C20.9107 24.4428 21.8179 23.8521 22.5669 23.1854L33.3247 29.2252C33.5934 29.3988 33.7539 29.6967 33.7539 30.0217ZM18.0059 25.2304L17.7855 26.0396H17.7551L17.5348 25.2295C17.66 25.235 17.9569 25.2323 18.0059 25.2304ZM17.7703 28.2808L19.1727 37.4033L17.7703 38.8995L16.3683 37.4033L17.7703 28.2808ZM9.10327 10.4499C9.10327 5.67291 12.9929 1.78672 17.7742 1.78672C22.1416 1.78672 25.7647 5.03561 26.3536 9.24373C24.6389 8.0488 22.3358 7.26551 20.0661 7.26551C18.5249 7.26551 16.898 7.64895 15.6765 8.18068L9.12246 11.0408C9.10981 10.8371 9.10327 10.64 9.10327 10.4499ZM16.3902 9.81865C17.5588 9.31003 18.7959 9.05223 20.0661 9.05223C22.346 9.05223 24.6273 9.92682 26.3708 11.5641C26.0117 15.034 24.1325 19.1278 21.8 21.4532C20.8775 22.3758 19.9287 22.9861 18.9725 23.2692C17.0278 23.8611 15.2318 22.924 13.7838 21.4886C11.7489 19.4868 10.0254 16.0984 9.37459 12.8801L16.3902 9.81865ZM1.78672 40.2011V30.0217C1.78672 29.6967 1.94724 29.3992 2.16535 29.2557L13.0226 23.2225C13.7093 23.8274 14.6393 24.4419 15.566 24.8001L16.1615 26.9878L14.5363 37.5616C14.4944 37.8329 14.5799 38.1082 14.7675 38.3084L17.1186 40.8166C17.2824 40.9914 17.5104 41.0886 17.7493 41.0945H2.68007C2.18759 41.0945 1.78672 40.6936 1.78672 40.2011Z" fill="#ED8853"/>
</svg>
