<svg width="655" height="154" viewBox="0 0 655 154" fill="none" xmlns="http://www.w3.org/2000/svg">
<path d="M0.656122 116H19.7194L19.7194 2.09491L0.656122 2.09491L0.656122 116ZM43.2556 116H62.5562L62.5562 72.0991C62.5562 65.1909 63.5317 59.8648 65.4829 56.1207C67.4868 52.3239 70.018 49.7136 73.0766 48.2897C76.1879 46.8132 79.3519 46.0749 82.5687 46.0749C87.1038 46.0749 90.716 47.0769 93.4055 49.0808C96.0949 51.0319 98.0724 53.5368 99.338 56.5953C100.656 59.6012 101.5 62.7388 101.869 66.0083C102.291 69.2778 102.502 72.2309 102.502 74.8676L102.502 116H121.803V68.3022C121.803 66.2984 121.618 63.6353 121.249 60.3131C120.933 56.9908 120.194 53.484 119.034 49.7927C117.874 46.1013 116.081 42.6209 113.655 39.3514C111.23 36.0291 107.934 33.3397 103.768 31.2831C99.6544 29.1737 94.4601 28.1191 88.1848 28.1191C82.015 28.1191 76.5834 29.2001 71.8901 31.3622C67.2495 33.4715 63.3735 36.3719 60.2622 40.0633V30.5712H43.2556L43.2556 116ZM176.695 118.373C181.124 118.373 185.159 117.767 188.797 116.554C192.489 115.394 195.785 113.759 198.685 111.649V153.968H217.906L217.906 30.5712L201.058 30.5712L201.058 36.741C198.052 33.9989 194.572 31.8895 190.617 30.413C186.662 28.9364 182.258 28.1982 177.407 28.1982C169.338 28.1982 162.325 30.1493 156.366 34.0516C150.46 37.9539 145.872 43.3064 142.602 50.1091C139.333 56.9117 137.698 64.6372 137.698 73.2856C137.698 81.8285 139.307 89.5012 142.523 96.3039C145.74 103.107 150.275 108.485 156.129 112.44C161.982 116.396 168.838 118.373 176.695 118.373ZM179.622 101.287C174.665 101.287 170.578 100.048 167.361 97.5695C164.144 95.0383 161.745 91.6633 160.163 87.4446C158.634 83.2259 157.869 78.5062 157.869 73.2856C157.869 68.1177 158.66 63.4244 160.242 59.2057C161.877 54.9342 164.329 51.5593 167.598 49.0808C170.92 46.5495 175.139 45.2839 180.254 45.2839C187.532 45.2839 192.805 47.8679 196.075 53.0358C199.397 58.2037 201.058 64.9536 201.058 73.2856C201.058 81.5648 199.397 88.3147 196.075 93.5354C192.805 98.7033 187.321 101.287 179.622 101.287ZM272.12 118.452C278.29 118.452 283.695 117.397 288.336 115.288C293.029 113.126 296.931 110.199 300.043 106.508V116H316.891V30.5712H297.749V74.4721C297.749 81.3802 296.747 86.7327 294.743 90.5296C292.792 94.2737 290.287 96.884 287.228 98.3605C284.17 99.7843 281.006 100.496 277.736 100.496C273.201 100.496 269.589 99.5207 266.899 97.5695C264.21 95.5656 262.206 93.0608 260.888 90.055C259.622 86.9964 258.778 83.8324 258.356 80.5629C257.987 77.2934 257.803 74.3403 257.803 71.7036V30.5712H238.502L238.502 78.2689C238.502 80.2728 238.66 82.9359 238.977 86.2581C239.346 89.5803 240.111 93.0871 241.271 96.7785C242.431 100.47 244.224 103.977 246.65 107.299C249.075 110.568 252.345 113.258 256.458 115.367C260.624 117.424 265.845 118.452 272.12 118.452ZM340.697 17.5987H359.76V0.117393H340.697V17.5987ZM340.697 116H359.76V30.5712H340.697V116ZM383.454 116H402.597V72.5737C402.597 67.6167 403.493 63.2134 405.286 59.3639C407.132 55.5143 410.006 52.5348 413.908 50.4255C416.545 48.8962 419.498 47.9997 422.767 47.736C426.037 47.4196 428.964 47.6306 431.548 48.3689V30.5712C427.698 29.9911 423.743 30.0702 419.682 30.8085C415.622 31.494 412.01 32.9178 408.846 35.0799C407.053 36.1873 405.444 37.532 404.021 39.1141C402.597 40.6433 401.357 42.3572 400.303 44.2556V30.5712L383.454 30.5712V116ZM448.224 17.5987H467.288V0.117393L448.224 0.117393V17.5987ZM448.224 116H467.288V30.5712H448.224V116ZM529.82 118.373C538.047 118.373 545.561 116.264 552.364 112.045C559.219 107.774 564.282 101.762 567.551 94.01L548.725 88.3147C544.929 96.4357 538.258 100.496 528.713 100.496C522.227 100.496 517.112 98.6242 513.367 94.8801C509.623 91.0833 507.382 85.6517 506.644 78.5853H568.501C569.239 68.3022 568.105 59.3902 565.099 51.8493C562.093 44.3083 557.479 38.4813 551.257 34.368C545.087 30.2548 537.572 28.1982 528.713 28.1982C520.328 28.1982 512.946 30.0966 506.565 33.8934C500.184 37.6375 495.201 42.9636 491.615 49.8718C488.029 56.7799 486.236 64.9009 486.236 74.2348C486.236 82.8831 488.055 90.5296 491.694 97.174C495.385 103.818 500.5 109.013 507.039 112.757C513.578 116.501 521.172 118.373 529.82 118.373ZM529.504 44.8884C535.41 44.8884 539.945 46.4441 543.109 49.5554C546.326 52.6139 548.356 57.4918 549.2 64.189H507.118C509.386 51.3219 516.848 44.8884 529.504 44.8884ZM619.135 118.373C630.156 118.373 638.778 115.921 645.001 111.017C651.276 106.112 654.414 99.3625 654.414 90.7669C654.414 84.1224 652.305 78.9017 648.086 75.1049C643.92 71.3081 636.722 68.0913 626.491 65.4546C619.847 63.7671 614.837 62.3433 611.462 61.1832C608.14 60.023 605.925 58.8629 604.818 57.7027C603.71 56.5426 603.157 55.1451 603.157 53.5104C603.157 50.6628 604.528 48.448 607.27 46.8659C610.012 45.2312 613.624 44.5193 618.107 44.7302C622.747 44.9939 626.465 46.1804 629.26 48.2897C632.108 50.3991 633.795 53.2731 634.322 56.9117L653.781 53.4313C652.727 45.7322 648.956 39.615 642.47 35.0799C635.984 30.4921 627.757 28.1982 617.79 28.1982C607.613 28.1982 599.465 30.5712 593.348 35.3172C587.231 40.0633 584.173 46.4441 584.173 54.4596C584.173 60.8404 586.308 65.8765 590.58 69.5679C594.904 73.2592 602.418 76.5024 613.123 79.2972C619.557 80.9847 624.303 82.4085 627.362 83.5687C630.473 84.6761 632.503 85.8099 633.452 86.97C634.401 88.1302 634.876 89.6858 634.876 91.637C634.876 94.801 633.61 97.3059 631.079 99.1515C628.548 100.944 625.015 101.841 620.48 101.841C615.259 101.841 610.909 100.628 607.428 98.2023C604 95.7766 601.812 92.4543 600.863 88.2356L581.404 91.2415C582.828 99.8371 586.836 106.508 593.427 111.254C600.019 116 608.588 118.373 619.135 118.373Z" fill="#E3946A" fill-opacity="0.05"/>
</svg>
