<svg width="608" height="130" viewBox="0 0 608 130" fill="none" xmlns="http://www.w3.org/2000/svg">
<path d="M89.8028 17.7614C95.707 25.0749 98.7772 33.3751 99.0133 42.6621C99.0133 51.6009 96.0612 59.8431 90.157 67.3888C86.4964 72.2644 81.714 76.1534 75.8098 79.0555C69.9057 81.9577 63.6472 83.4088 57.0345 83.4088H21.2551V127.29H0V1.91544H57.0345C61.5217 1.91544 65.8318 2.61197 69.9647 4.00502C78.4667 6.55894 85.0794 11.1444 89.8028 17.7614ZM72.7987 55.5478C75.8689 51.4848 77.3449 47.1895 77.2268 42.6621C76.9907 37.206 75.2194 32.5625 71.9131 28.7317C67.544 24.0882 62.5254 21.7664 56.8574 21.7664H21.2551V63.732H56.8574C63.2339 63.732 68.5477 61.004 72.7987 55.5478Z" fill="#E3946A" fill-opacity="0.05"/>
<path d="M162.17 30.8212C167.129 30.473 172.148 31.2856 177.225 33.2591V52.7617C172.384 50.7883 166.657 49.9756 160.044 50.3239C153.077 50.7883 147.704 52.9939 143.926 56.9409C139.202 61.7005 136.841 68.8979 136.841 78.5332V127.29H115.409V33.2591H134.361V46.3189C136.841 42.2558 140.029 38.9473 143.926 36.3934C149.24 32.9108 155.321 31.0534 162.17 30.8212Z" fill="#E3946A" fill-opacity="0.05"/>
<path d="M195.89 0H217.145V19.3286H195.89V0ZM195.89 33.2591H217.145V127.29H195.89V33.2591Z" fill="#E3946A" fill-opacity="0.05"/>
<path d="M304.524 33.2591H325.956L291.062 127.29H269.807L234.913 33.2591H256.345L280.434 101.344L304.524 33.2591Z" fill="#E3946A" fill-opacity="0.05"/>
<path d="M417.419 127.29H398.821V114.927C394.216 120.499 389.256 124.388 383.942 126.593C378.747 128.799 372.311 129.902 364.636 129.902C355.071 129.902 347.395 127.29 341.609 122.066C335.941 116.842 333.107 109.819 333.107 100.996C333.107 88.3425 338.716 79.4038 349.934 74.1799C352.178 73.1351 354.717 72.2064 357.551 71.3938C360.503 70.5812 363.809 69.8266 367.47 69.1301C371.248 68.4335 374.319 67.9112 376.68 67.5629C379.16 67.0985 382.702 66.5761 387.308 65.9957C391.913 65.4153 394.865 65.009 396.164 64.7768C395.574 60.2494 393.566 56.7668 390.142 54.3289C386.717 51.775 382.053 50.498 376.149 50.498C366.23 50.498 357.964 53.7485 351.351 60.2494L338.775 46.3189C349.167 35.871 362.215 30.6471 377.92 30.6471C388.311 30.6471 397.404 33.9556 405.197 40.5726C413.345 47.3056 417.419 57.3472 417.419 70.6973V127.29ZM392.976 100.125C395.219 96.4106 396.341 90.1419 396.341 81.3193C385.477 83.1767 376.68 84.8599 369.949 86.3691C359.44 88.5747 354.185 92.928 354.185 99.4289C354.185 103.144 355.602 106.22 358.436 108.658C361.388 111.096 365.108 112.315 369.595 112.315C374.673 112.315 379.219 111.212 383.234 109.006C387.367 106.8 390.614 103.84 392.976 100.125Z" fill="#E3946A" fill-opacity="0.05"/>
<path d="M496.528 49.6274H468.365V87.4138C468.365 95.6561 469.132 101.054 470.668 103.608C472.911 107.323 476.277 109.354 480.764 109.703C485.959 110.051 491.214 109.877 496.528 109.18V127.29C492.749 128.219 488.321 128.741 483.243 128.857C478.166 128.973 473.856 128.625 470.313 127.812C461.221 125.607 454.903 121.195 451.361 114.578C448.527 109.238 447.11 100.648 447.11 88.8069V49.6274H429.751V33.2591H447.11V7.13938H468.365V33.2591H496.528V49.6274Z" fill="#E3946A" fill-opacity="0.05"/>
<path d="M533.747 87.7621C534.573 93.9147 536.403 98.8485 539.237 102.563C543.725 108.6 550.455 111.618 559.43 111.618C565.452 111.618 570.53 110.515 574.663 108.31C578.914 106.104 582.928 102.737 586.707 98.21L602.294 108.658C592.847 122.821 578.914 129.902 560.492 129.902C553.171 129.902 546.145 128.567 539.414 125.897C532.802 123.111 527.429 119.222 523.296 114.23C515.621 104.943 511.783 93.9728 511.783 81.3193C511.783 66.9244 515.621 55.1996 523.296 46.1448C532.034 35.813 544.079 30.6471 559.43 30.6471C574.663 30.6471 586.707 35.813 595.563 46.1448C604.656 57.057 608.376 70.9294 606.722 87.7621H533.747ZM559.43 48.7567C550.455 48.7567 543.725 51.775 539.237 57.8115C536.876 60.9459 535.223 64.7188 534.278 69.1301H584.582C583.519 64.8348 581.807 61.062 579.445 57.8115C574.958 51.775 568.286 48.7567 559.43 48.7567Z" fill="#E3946A" fill-opacity="0.05"/>
</svg>
