<svg width="126" height="125" viewBox="0 0 126 125" fill="none" xmlns="http://www.w3.org/2000/svg">
<path d="M53.2802 62.5516C53.2802 56.9456 57.8247 52.4011 63.4306 52.4011C69.0366 52.4011 73.5811 56.9456 73.5811 62.5516C73.5811 68.1575 69.0366 72.702 63.4306 72.702C57.8247 72.702 53.2802 68.1575 53.2802 62.5516Z" fill="#ED8853"/>
<path d="M9.64643 57.3251L9.69761 58.7165C8.90135 58.8532 8.28627 59.1454 7.85235 59.5931C7.45919 59.9985 7.19812 60.4808 7.06915 61.0401C6.91603 61.6145 6.90971 62.1349 7.05017 62.6013C7.13098 62.8783 7.27216 63.1176 7.47372 63.3191C7.66773 63.5085 7.89229 63.6326 8.14741 63.6914C8.51047 63.7751 8.82709 63.7241 9.09726 63.5384C9.40895 63.3519 9.75305 62.9352 10.1296 62.2883L11.1086 60.5299C11.5485 59.7426 12.0352 59.178 12.5688 58.836C13.2736 58.3785 14.0186 58.2402 14.8036 58.4213C15.2451 58.5231 15.6508 58.7355 16.0207 59.0584C16.3906 59.3814 16.6639 59.7648 16.8406 60.2086C17.1502 60.9723 17.1692 61.943 16.8977 63.1205C16.5493 64.6316 15.7984 65.6468 14.6453 66.1663C14.0641 66.4457 13.3437 66.5896 12.484 66.598L12.4363 65.1919C13.0816 65.2167 13.6235 65.1298 14.062 64.9312C14.8763 64.5817 15.4079 63.8672 15.6568 62.7878C15.8446 61.9734 15.8222 61.2862 15.5897 60.7262C15.3805 60.2439 14.9963 59.9383 14.437 59.8093C14.0151 59.712 13.6328 59.7789 13.2901 60.0099C12.9354 60.2485 12.6162 60.6244 12.3325 61.1377L11.3105 62.9482C10.8276 63.7876 10.3473 64.3692 9.86959 64.6931C9.27415 65.1242 8.57903 65.2481 7.78423 65.0648C7.29361 64.9516 6.86637 64.6981 6.5025 64.3042C6.12882 63.908 5.88118 63.4582 5.75958 62.9548C5.60399 62.3299 5.62462 61.5906 5.82147 60.7369C6.01606 59.893 6.36615 59.2039 6.87175 58.6694C7.57356 57.9115 8.49845 57.4634 9.64643 57.3251Z" fill="#ED8853"/>
<path d="M10.6577 46.1771L11.1017 44.8922L19.0116 51.5084C19.7121 52.102 20.1392 52.6544 20.2928 53.1656C20.4252 53.5842 20.3796 54.1172 20.156 54.7644L20.0918 54.95L18.864 54.5258L18.9764 54.2929C19.1172 53.9473 19.1552 53.6675 19.0907 53.4535C19.0016 53.1563 18.4962 52.6301 17.5745 51.8749L8.51208 52.3875L8.96094 51.0883L16.1399 50.708L10.6577 46.1771Z" fill="#ED8853"/>
<path d="M17.0238 36.2536C17.6131 36.0523 18.2082 36.0506 18.809 36.2485C19.4013 36.441 20.0575 36.7687 20.7776 37.2314L24.132 39.3312L23.4107 40.4835L20.0947 38.4077C19.5229 38.0497 19.0171 37.8044 18.5774 37.6717C18.1431 37.5305 17.7268 37.5312 17.3285 37.674C16.847 37.8359 16.4518 38.1825 16.143 38.7139C15.8907 39.1737 15.8002 39.622 15.8714 40.0586C15.9383 40.54 16.1841 40.973 16.6086 41.3576C16.8443 41.5883 17.3121 41.9228 18.012 42.3609L18.0248 42.3689L21.0464 44.2604L20.3331 45.3999L13.4194 41.0719L14.0526 40.0605L14.9616 40.6295C14.9349 40.5772 14.8828 40.4139 14.805 40.1395C14.6113 39.4242 14.7271 38.6888 15.1525 37.9334C15.6163 37.0595 16.2401 36.4996 17.0238 36.2536Z" fill="#ED8853"/>
<path d="M21.8403 24.2259L22.7943 23.2788L30.4564 30.9968L29.6096 31.8375L28.9391 31.1621C29.028 32.1807 28.6651 33.0944 27.8504 33.9031C27.0143 34.7332 26.0375 35.0857 24.92 34.9606C23.9521 34.8431 23.0318 34.3449 22.1591 33.4659C21.3007 32.6012 20.8127 31.6809 20.6952 30.705C20.571 29.6079 20.9306 28.6409 21.7739 27.8037C22.5028 27.0801 23.3443 26.7129 24.2985 26.7021L21.8403 24.2259ZM27.8503 30.9873C27.7958 30.3178 27.4209 29.6328 26.7256 28.9325C26.0516 28.2536 25.373 27.8773 24.6897 27.8036C23.9994 27.7085 23.3648 27.9483 22.7859 28.523C22.1713 29.1331 21.9268 29.8016 22.0523 30.5283C22.1497 31.1695 22.5212 31.8153 23.1668 32.4656C23.8266 33.1302 24.4696 33.5135 25.0958 33.6154C25.8216 33.7462 26.4883 33.5101 27.0957 32.9071C27.6817 32.3253 27.9332 31.6854 27.8503 30.9873Z" fill="#ED8853"/>
<path d="M25.5317 20.4766L26.577 19.6314L27.4508 20.712L26.4054 21.5572L25.5317 20.4766ZM27.2697 22.626L28.315 21.7808L33.4435 28.1234L32.3981 28.9686L27.2697 22.626Z" fill="#ED8853"/>
<path d="M39.4136 16.45L38.5256 17.5068C38.3991 17.3902 38.2592 17.3028 38.1059 17.2448C37.4607 16.9048 36.7605 16.9252 36.0053 17.3061C35.25 17.687 34.8173 18.238 34.7072 18.9589C34.5832 19.5628 34.7254 20.2918 35.1336 21.1461C35.5688 21.9642 36.0706 22.5118 36.639 22.7891C37.2886 23.1156 37.9865 23.0907 38.7328 22.7143C39.479 22.3379 39.914 21.7915 40.0376 21.075C40.0641 20.9263 40.0748 20.7687 40.0697 20.6021L41.461 20.5095C41.4441 20.8338 41.4157 21.1018 41.3759 21.3136C41.1232 22.4673 40.4349 23.3164 39.3109 23.8607C38.2051 24.4409 37.1132 24.4897 36.0352 24.0071C35.1557 23.6048 34.4325 22.8643 33.8659 21.7854C33.3352 20.6884 33.1673 19.6622 33.3621 18.7068C33.6014 17.5937 34.292 16.7491 35.4339 16.1733C36.5668 15.6019 37.6564 15.5486 38.7028 16.0133C38.9916 16.161 39.2285 16.3065 39.4136 16.45Z" fill="#ED8853"/>
<path d="M50.8337 18.6779L49.6796 18.9813L49.3647 17.7834C48.9508 18.9021 48.0718 19.6382 46.7279 19.9914C45.9585 20.1937 45.2727 20.1397 44.6706 19.8294C44.0781 19.5166 43.6872 18.9999 43.4978 18.2792C43.2341 17.2761 43.5034 16.4192 44.3057 15.7085C44.5088 15.5302 44.774 15.3511 45.1016 15.1713C45.4363 14.9792 45.7155 14.8329 45.939 14.7325C46.1722 14.6296 46.5561 14.4662 47.0908 14.2424C47.6352 14.016 47.9863 13.8664 48.1442 13.7937C47.9839 13.2631 47.6926 12.9076 47.2703 12.7271C46.8552 12.5342 46.3652 12.5121 45.8004 12.6606C44.8654 12.9063 44.2098 13.4223 43.8333 14.2084L42.7848 13.5469C43.331 12.4559 44.2712 11.735 45.6055 11.3843C46.443 11.1641 47.2218 11.2353 47.9418 11.5979C48.7254 11.9646 49.2669 12.7176 49.5665 13.8571L50.8337 18.6779ZM48.6623 16.9529C48.7136 16.752 48.7341 16.5331 48.7239 16.2963C48.7112 16.0498 48.6818 15.8389 48.6357 15.6636C48.5994 15.4857 48.5338 15.2166 48.4391 14.8562C47.1976 15.4012 46.39 15.7749 46.0163 15.9773C45.5647 16.2001 45.2199 16.4729 44.982 16.7958C44.7441 17.1186 44.6725 17.4602 44.7672 17.8205C44.8747 18.2296 45.1079 18.5223 45.4666 18.6987C45.8253 18.8751 46.2287 18.9045 46.6767 18.7867C47.7577 18.5025 48.4196 17.8913 48.6623 16.9529Z" fill="#ED8853"/>
<path d="M54.9691 10.4423L55.3442 14.3212C55.4159 15.0629 55.5216 15.5282 55.6613 15.717C55.8656 16.0514 56.1957 16.2218 56.6516 16.2283C57.1356 16.2118 57.5797 16.1487 57.9839 16.0388L58.0987 17.2265C57.4537 17.4609 56.8191 17.5425 56.1951 17.4713C55.4179 17.3846 54.8563 17.0696 54.5103 16.5264C54.2701 16.1348 54.1045 15.468 54.0134 14.5258L53.631 10.5717L51.9772 10.7316L51.8711 9.63408L53.5249 9.47416L53.3068 7.21896L54.6449 7.08957L54.863 9.34477L57.3136 9.10779L57.4198 10.2053L54.9691 10.4423Z" fill="#ED8853"/>
<path d="M73.4267 10.7686C73.848 11.6567 73.9263 12.6955 73.6615 13.8848C73.3924 15.0938 72.8799 16.0062 72.1238 16.622C71.2455 17.324 70.2312 17.547 69.0812 17.291C68.0393 17.0591 67.2809 16.5499 66.8061 15.7633L65.8511 20.0538L64.5241 19.7585L67.0839 8.25816L68.2634 8.52069L68.0632 9.42008C68.8979 8.82182 69.8607 8.64411 70.9518 8.88696C72.1215 9.1473 72.9464 9.77452 73.4267 10.7686ZM71.2428 15.5748C71.7137 15.1741 72.053 14.5068 72.2609 13.5731C72.4643 12.6589 72.434 11.9146 72.1699 11.34C71.8883 10.6583 71.3249 10.2234 70.4795 10.0353C69.6932 9.86025 69.0285 9.99601 68.4855 10.4425C67.9568 10.8716 67.5884 11.553 67.3806 12.4868C67.1684 13.4403 67.2118 14.2185 67.5109 14.8215C67.8329 15.4606 68.392 15.8687 69.1881 16.0459C70.0138 16.2297 70.6987 16.0726 71.2428 15.5748Z" fill="#ED8853"/>
<path d="M81.8292 11.7356C82.2016 11.8617 82.5397 12.0608 82.8434 12.333L82.3755 13.5124C82.0568 13.2234 81.686 13.0113 81.263 12.8759C80.6565 12.657 80.1049 12.6548 79.6081 12.8694C79.2102 13.0257 78.8986 13.265 78.6732 13.5872C78.4609 13.9038 78.2397 14.3523 78.0094 14.9326L76.5332 18.6532L75.2696 18.1519L78.2777 10.5703L79.4009 11.0159L78.9609 12.1251C79.2407 11.9111 79.5638 11.7522 79.93 11.6483C80.5429 11.469 81.1759 11.4981 81.8292 11.7356Z" fill="#ED8853"/>
<path d="M87.0426 11.0657L88.2315 11.6931L87.5829 12.9221L86.394 12.2947L87.0426 11.0657ZM85.7524 13.5103L86.9413 14.1377L83.1342 21.3513L81.9453 20.7238L85.7524 13.5103Z" fill="#ED8853"/>
<path d="M95.7908 19.5598L96.8628 20.4201L89.4368 24.9189L88.3766 24.068L91.1612 15.8442L92.2214 16.6951L89.9845 23.1505L95.7908 19.5598Z" fill="#ED8853"/>
<path d="M98.1456 32.9236L97.3919 31.9984L98.3522 31.2162C97.1624 31.3022 96.1287 30.8065 95.251 29.7291C94.7486 29.1123 94.514 28.4657 94.5474 27.7891C94.5871 27.1204 94.8958 26.5507 95.4735 26.08C96.2777 25.425 97.1692 25.3156 98.1481 25.752C98.3945 25.8631 98.6672 26.0305 98.9665 26.2543C99.2799 26.4796 99.5285 26.6732 99.7124 26.8352C99.9026 27.0049 100.21 27.2868 100.635 27.681C101.066 28.0829 101.348 28.3407 101.479 28.4543C101.896 28.0889 102.099 27.6767 102.089 27.2175C102.093 26.7598 101.91 26.3046 101.541 25.8518C100.931 25.1023 100.19 24.7188 99.3184 24.7013L99.4868 23.4731C100.706 23.519 101.751 24.0767 102.623 25.1463C103.17 25.8177 103.427 26.5562 103.395 27.3617C103.385 28.2267 102.924 29.0313 102.01 29.7754L98.1456 32.9236ZM98.8177 30.233C99.0218 30.1966 99.2296 30.1248 99.4409 30.0176C99.6601 29.904 99.8399 29.7899 99.9805 29.6755C100.127 29.5688 100.345 29.3978 100.634 29.1625C99.6243 28.2577 98.95 27.677 98.6111 27.4205C98.2214 27.1016 97.8304 26.9006 97.4381 26.8175C97.0457 26.7345 96.7051 26.8107 96.4163 27.046C96.0883 27.3131 95.9183 27.6464 95.9061 28.046C95.8939 28.4456 96.0341 28.8249 96.3267 29.1841C97.0326 30.0507 97.863 30.4003 98.8177 30.233Z" fill="#ED8853"/>
<path d="M107.333 33.2353L103.963 35.1926C103.319 35.5669 102.94 35.8569 102.827 36.0625C102.608 36.3876 102.591 36.7587 102.775 37.1758C102.991 37.6089 103.234 37.9863 103.502 38.3079L102.47 38.9072C101.988 38.4185 101.65 37.8757 101.454 37.2788C101.209 36.5361 101.262 35.8944 101.611 35.3535C101.867 34.972 102.404 34.5435 103.223 34.0681L106.658 32.0728L105.823 30.6361L106.777 30.0823L107.612 31.519L109.571 30.381L110.246 31.5435L108.287 32.6815L109.523 34.8104L108.57 35.3643L107.333 33.2353Z" fill="#ED8853"/>
<path d="M108.333 40.977C107.665 41.2356 107.168 41.5888 106.842 42.0368C106.392 42.6284 106.296 43.3429 106.554 44.1802C106.886 45.258 107.598 45.9449 108.69 46.2408L108.352 47.4036C106.866 47.0604 105.888 46.1237 105.417 44.5935C105.239 44.0161 105.181 43.4335 105.242 42.8456C105.306 42.2674 105.493 41.7461 105.803 41.2819C106.38 40.4511 107.217 39.8667 108.314 39.5289C109.498 39.1644 110.552 39.1664 111.477 39.5349C112.537 39.967 113.254 40.7894 113.627 42.002C114.001 43.2146 113.871 44.2978 113.237 45.2515C112.614 46.1704 111.612 46.8003 110.231 47.1412L108.333 40.977ZM112.487 42.3532C112.229 41.5159 111.748 40.9793 111.043 40.7432C110.613 40.5805 110.103 40.548 109.511 40.6458L110.987 45.4386C111.522 45.1897 111.925 44.8757 112.199 44.4966C112.646 43.8953 112.742 43.1808 112.487 42.3532Z" fill="#ED8853"/>
<path d="M115.405 62.0178L114.866 60.7469C115.028 60.6871 115.169 60.6021 115.29 60.4918C115.886 60.0711 116.185 59.4379 116.189 58.592C116.192 57.7461 115.897 57.1106 115.305 56.6854C114.823 56.3009 114.109 56.0967 113.162 56.0729C112.236 56.0895 111.52 56.2881 111.015 56.6688C110.429 57.0996 110.135 57.7328 110.132 58.5686C110.129 59.4044 110.418 60.0399 111 60.4752C111.121 60.5663 111.257 60.6474 111.407 60.7184L110.859 62.0002C110.577 61.838 110.351 61.6912 110.181 61.5596C109.267 60.8109 108.823 59.8122 108.848 58.5637C108.833 57.3149 109.284 56.3198 110.204 55.5781C110.961 54.9769 111.949 54.6685 113.168 54.6531C114.386 54.6779 115.377 54.9939 116.14 55.6011C117.023 56.3194 117.462 57.318 117.458 58.5969C117.453 59.8657 117.006 60.8609 116.117 61.5825C115.854 61.7728 115.617 61.9179 115.405 62.0178Z" fill="#ED8853"/>
<path d="M108.757 68.1689C109.047 66.9337 109.711 66.0654 110.749 65.5643C111.666 65.1381 112.703 65.0608 113.86 65.3322C115.027 65.6059 115.916 66.1352 116.528 66.9201C116.862 67.35 117.082 67.8463 117.188 68.409C117.291 68.9815 117.275 69.557 117.139 70.1354C116.845 71.3903 116.186 72.2596 115.162 72.7435C114.272 73.1863 113.239 73.2697 112.063 72.9937C110.896 72.72 110.003 72.1847 109.383 71.3877C108.674 70.4869 108.465 69.414 108.757 68.1689ZM110.422 70.5299C110.832 71.0295 111.488 71.3851 112.39 71.5967C113.302 71.8106 114.043 71.7827 114.613 71.5131C115.278 71.2347 115.709 70.6789 115.904 69.8456C116.097 69.0221 115.958 68.3378 115.486 67.7926C115.095 67.2976 114.444 66.9431 113.532 66.7292C112.63 66.5176 111.884 66.5443 111.295 66.8094C110.627 67.0975 110.198 67.6485 110.007 68.4622C109.814 69.2857 109.952 69.9749 110.422 70.5299Z" fill="#ED8853"/>
<path d="M109.837 89.0331C109.343 89.1722 108.903 89.1788 108.517 89.0529C108.126 88.9356 107.642 88.6931 107.064 88.3255L102.842 85.6207L103.563 84.4865L107.722 87.1507C108.105 87.394 108.424 87.5492 108.679 87.6164C108.938 87.6975 109.229 87.6913 109.551 87.5978C109.978 87.4881 110.311 87.2463 110.549 86.8725C110.857 86.3883 110.925 85.8882 110.752 85.3723C110.609 84.9591 110.3 84.6011 109.824 84.2984L109.684 84.2092L105.461 81.5045L106.182 80.3702L110.341 83.0345C110.724 83.2777 111.043 83.4329 111.298 83.5001C111.557 83.5812 111.848 83.575 112.17 83.4815C112.597 83.3718 112.93 83.1301 113.168 82.7562C113.476 82.272 113.544 81.7719 113.371 81.256C113.228 80.8428 112.919 80.4849 112.443 80.1821L108.072 77.4009L108.801 76.254L115.683 80.6326L115.034 81.6521L114.295 81.1818C114.604 82.0468 114.502 82.8828 113.988 83.6899C113.572 84.3441 113.061 84.7531 112.456 84.9169C112.162 85.0042 111.859 85.0385 111.549 85.02C111.584 85.078 111.602 85.1139 111.606 85.1278C111.796 85.5595 111.867 86.0105 111.819 86.4809C111.779 86.9566 111.629 87.3984 111.369 87.8062C110.953 88.4604 110.442 88.8694 109.837 89.0331Z" fill="#ED8853"/>
<path d="M98.6608 102.715C98.1482 102.686 97.7301 102.549 97.4067 102.304C97.0754 102.066 96.6964 101.679 96.2697 101.144L93.157 97.212L94.2084 96.3744L97.2741 100.247C97.5565 100.602 97.8076 100.852 98.0275 100.999C98.2457 101.16 98.5223 101.248 98.8573 101.265C99.2975 101.3 99.6909 101.18 100.037 100.904C100.486 100.546 100.713 100.095 100.717 99.5513C100.717 99.1141 100.541 98.675 100.189 98.2339L100.086 98.104L96.973 94.1722L98.0245 93.3345L101.09 97.2073C101.373 97.5617 101.624 97.8123 101.844 97.959C102.062 98.1199 102.338 98.2085 102.673 98.2249C103.114 98.2604 103.507 98.1402 103.854 97.8641C104.303 97.5065 104.529 97.0556 104.533 96.5115C104.533 96.0743 104.357 95.6351 104.005 95.194L100.777 91.1417L101.841 90.2947L106.923 96.6745L105.978 97.4274L105.432 96.7421C105.442 97.6606 105.074 98.4178 104.325 99.0139C103.719 99.497 103.103 99.7175 102.477 99.6753C102.17 99.6621 101.873 99.5962 101.586 99.4776C101.6 99.5437 101.606 99.5838 101.604 99.598C101.644 100.068 101.565 100.518 101.366 100.947C101.173 101.384 100.887 101.753 100.509 102.054C99.9028 102.537 99.2866 102.757 98.6608 102.715Z" fill="#ED8853"/>
<path d="M89.0691 109.926L87.842 110.511L84.3321 103.148L85.4228 102.628L85.8778 103.583C85.9176 103.385 85.9589 103.226 86.0017 103.105C86.2403 102.389 86.7328 101.831 87.479 101.43C88.3395 100.942 89.1663 100.804 89.9596 101.018C90.5649 101.164 91.0702 101.475 91.4757 101.951C91.8763 102.441 92.2563 103.074 92.6155 103.851L94.3185 107.423L93.0914 108.008L91.4079 104.477C90.8186 103.241 90.1674 102.542 89.4542 102.38C88.952 102.262 88.4392 102.345 87.9159 102.628C87.461 102.867 87.1395 103.199 86.9513 103.623C86.7541 104.052 86.7268 104.544 86.8695 105.101C86.9233 105.354 87.0585 105.708 87.2751 106.163L89.0691 109.926Z" fill="#ED8853"/>
<path d="M77.2404 114.089C76.6844 113.808 76.267 113.384 75.9882 112.816C75.7116 112.258 75.4869 111.56 75.3139 110.722L74.4689 106.855L75.797 106.565L76.6323 110.387C76.7764 111.046 76.9548 111.579 77.1674 111.986C77.3703 112.396 77.662 112.693 78.0425 112.877C78.495 113.108 79.0191 113.148 79.6149 112.997C80.12 112.856 80.5037 112.607 80.766 112.251C81.0633 111.867 81.201 111.388 81.1789 110.816C81.179 110.486 81.0908 109.918 80.9145 109.111L80.9113 109.096L80.1501 105.614L81.4634 105.327L83.2052 113.295L82.0394 113.55L81.8104 112.502C81.7916 112.558 81.7114 112.709 81.5696 112.957C81.1938 113.595 80.5873 114.027 79.7498 114.251C78.8008 114.531 77.9643 114.477 77.2404 114.089Z" fill="#ED8853"/>
<path d="M72.7183 118.431L71.3818 118.576L71.232 117.194L72.5685 117.049L72.7183 118.431ZM72.4205 115.683L71.084 115.828L70.2053 107.718L71.5418 107.574L72.4205 115.683Z" fill="#ED8853"/>
<path d="M64.2087 115.342L64.4042 111.45C64.4415 110.706 64.4049 110.23 64.2943 110.023C64.141 109.662 63.8394 109.446 63.3893 109.373C62.9081 109.318 62.4595 109.316 62.0436 109.366L62.1035 108.174C62.7758 108.036 63.4155 108.048 64.0224 108.21C64.7787 108.409 65.2882 108.803 65.5511 109.39C65.7316 109.813 65.798 110.497 65.7506 111.442L65.5514 115.41L67.2108 115.493L67.1555 116.594L65.4961 116.511L65.3825 118.774L64.0398 118.706L64.1535 116.444L61.6945 116.32L61.7498 115.219L64.2087 115.342Z" fill="#ED8853"/>
<path d="M51.3826 115.016L50.0691 114.665L56.1008 106.301C56.6426 105.56 57.1629 105.094 57.6618 104.904C58.0698 104.742 58.6046 104.75 59.2662 104.926L59.4559 104.977L59.1209 106.232L58.8806 106.136C58.5258 106.021 58.244 106.003 58.0351 106.083C57.7451 106.193 57.2566 106.735 56.5694 107.708L57.7309 116.711L56.4029 116.356L55.5085 109.223L51.3826 115.016Z" fill="#ED8853"/>
<path d="M36.6156 107.089L37.9796 107.302C37.9453 107.47 37.9431 107.635 37.9728 107.796C38.0161 108.524 38.3962 109.113 39.1131 109.562C39.8301 110.01 40.5255 110.095 41.1992 109.816C41.78 109.609 42.3301 109.11 42.8494 108.319C43.3239 107.523 43.5326 106.81 43.4754 106.18C43.4183 105.455 43.0355 104.871 42.3271 104.427C41.6186 103.984 40.9259 103.895 40.249 104.16C40.1081 104.215 39.9677 104.287 39.8278 104.378L39.028 103.235C39.3142 103.082 39.5582 102.967 39.76 102.892C40.8778 102.51 41.9606 102.66 43.0083 103.339C44.0774 103.985 44.6846 104.894 44.83 106.066C44.9414 107.026 44.6824 108.028 44.0529 109.072C43.3893 110.094 42.5984 110.769 41.6802 111.097C40.604 111.469 39.5239 111.316 38.4399 110.637C37.3644 109.964 36.7545 109.059 36.6102 107.923C36.5869 107.6 36.5887 107.322 36.6156 107.089Z" fill="#ED8853"/>
<path d="M38.0774 100.588L37.0049 99.7777L30.3114 108.635L31.3839 109.445L38.0774 100.588Z" fill="#ED8853"/>
<path d="M23.8341 99.0541L22.964 98.0096L29.2313 92.7893L30.0046 93.7177L29.1922 94.3944C29.3933 94.3842 29.5577 94.3849 29.6854 94.3965C30.4383 94.4508 31.101 94.7901 31.6733 95.4142C32.359 96.1274 32.6966 96.8946 32.6861 97.7159C32.6937 98.3386 32.517 98.9052 32.1559 99.4157C31.7806 99.9249 31.2608 100.45 30.5967 100.99L27.556 103.522L26.6859 102.478L29.6919 99.9741C30.7441 99.0976 31.2607 98.2938 31.2415 97.5627C31.2313 97.047 31.0245 96.5706 30.621 96.1334C30.2769 95.7517 29.8759 95.5221 29.4183 95.4446C28.9541 95.3594 28.47 95.4547 27.9658 95.7305C27.7337 95.8452 27.4242 96.0637 27.0373 96.3859L23.8341 99.0541Z" fill="#ED8853"/>
<path d="M17.0877 87.7417C17.508 86.8531 18.2621 86.1344 19.35 85.5858C20.4559 85.028 21.4866 84.8466 22.442 85.0414C23.5416 85.2763 24.3567 85.9197 24.8872 86.9717C25.4042 87.9967 25.4593 88.9782 25.0528 89.9163L25.9024 89.4878L26.4466 90.5667L16.7362 95.464L16.124 94.2502L19.2394 92.679C18.3331 92.3579 17.6533 91.7478 17.1998 90.8487C16.6602 89.7787 16.6229 88.7431 17.0877 87.7417ZM22.1899 86.3866C21.5816 86.2761 20.8503 86.4362 19.9962 86.867C19.16 87.2887 18.6033 87.7838 18.326 88.3521C17.977 89.0018 17.9975 89.7133 18.3875 90.4865C18.7502 91.2058 19.2764 91.6341 19.9659 91.7713C20.6328 91.9086 21.3934 91.7619 22.2476 91.3311C23.1197 90.8912 23.6943 90.3646 23.9714 89.7512C24.2619 89.0972 24.2234 88.406 23.8561 87.6778C23.4752 86.9225 22.9198 86.4921 22.1899 86.3866Z" fill="#ED8853"/>
</svg>
