<svg width="149" height="149" viewBox="0 0 149 149" fill="none" xmlns="http://www.w3.org/2000/svg">
<path d="M88.5102 74.3313C88.5102 82.1594 82.1643 88.5054 74.3362 88.5054C66.5081 88.5054 60.1621 82.1594 60.1621 74.3313C60.1621 66.5032 66.5081 60.1572 74.3362 60.1572C82.1643 60.1572 88.5102 66.5032 88.5102 74.3313Z" fill="#ED8853"/>
<path d="M138.924 76.002L138.473 80.161L137.461 80.0514L137.912 75.8923L138.924 76.002Z" fill="#ED8853"/>
<path d="M135.59 94.9221C134.952 95.1237 134.328 95.0978 133.718 94.8444C133.113 94.6029 132.644 94.2081 132.31 93.66C131.996 93.1389 131.859 92.554 131.899 91.9052C131.93 91.5502 132.035 91.1284 132.215 90.6396L133.501 87.1309L142.928 90.5874L141.708 93.9128C141.507 94.4626 141.337 94.8164 141.2 94.9741C140.865 95.4553 140.423 95.7833 139.874 95.9582C139.336 96.1569 138.769 96.1621 138.175 95.9739C137.621 95.8104 137.173 95.4529 136.83 94.9016C136.757 94.8053 136.67 94.6498 136.571 94.4351C136.282 94.6559 135.955 94.8182 135.59 94.9221ZM140.484 93.8499L141.396 91.3624L138.568 90.3255L137.656 92.813C137.582 93.0137 137.558 93.2424 137.582 93.499C137.616 93.7588 137.697 93.9818 137.827 94.168C138.027 94.4592 138.289 94.6641 138.612 94.7825C138.967 94.893 139.315 94.8769 139.654 94.7341C140.05 94.5723 140.327 94.2776 140.484 93.8499ZM134.154 93.653C134.558 93.8209 134.965 93.8315 135.375 93.6849C135.91 93.5243 136.276 93.1734 136.474 92.6323L137.468 89.9222L134.182 88.7172L133.332 91.0345C133.182 91.4448 133.091 91.7729 133.06 92.0191C133.038 92.2684 133.099 92.5335 133.244 92.8142C133.449 93.2262 133.753 93.5058 134.154 93.653Z" fill="#ED8853"/>
<path d="M134.47 105.046L133.859 106.143L127.28 102.481L127.822 101.506L128.675 101.981C128.599 101.811 128.545 101.669 128.513 101.556C128.309 100.889 128.381 100.206 128.728 99.5051C129.114 98.6774 129.663 98.1315 130.374 97.8674C130.907 97.6538 131.454 97.6176 132.014 97.7588C132.577 97.9127 133.202 98.1858 133.888 98.5782L137.08 100.355L136.47 101.451L133.314 99.6952C132.209 99.0804 131.345 98.9029 130.722 99.1625C130.281 99.3428 129.94 99.6793 129.697 100.172C129.483 100.595 129.419 101.017 129.504 101.437C129.585 101.865 129.828 102.25 130.233 102.593C130.409 102.755 130.7 102.948 131.107 103.175L134.47 105.046Z" fill="#ED8853"/>
<path d="M127.099 113.164L127.58 112.042C128.08 112.198 128.551 112.176 128.995 111.974C129.319 111.823 129.62 111.579 129.898 111.241C130.13 110.95 130.291 110.629 130.381 110.278C130.476 109.86 130.389 109.55 130.122 109.349C129.907 109.186 129.68 109.148 129.44 109.235C129.237 109.303 128.985 109.45 128.685 109.678C128.396 109.891 127.982 110.207 127.443 110.627C126.953 111.014 126.48 111.263 126.024 111.372C125.358 111.545 124.772 111.44 124.268 111.059C124.001 110.857 123.791 110.588 123.638 110.251C123.492 109.919 123.438 109.582 123.477 109.238C123.516 108.615 123.791 107.966 124.301 107.292C124.974 106.402 125.758 105.911 126.655 105.819C126.727 105.816 126.8 105.812 126.872 105.809C126.939 105.813 126.999 105.811 127.051 105.804C127.105 105.81 127.169 105.817 127.243 105.827C127.318 105.836 127.371 105.842 127.405 105.844C127.446 105.852 127.504 105.867 127.58 105.889C127.657 105.912 127.711 105.924 127.745 105.926C127.773 105.936 127.828 105.955 127.912 105.983C128.003 106.017 128.062 106.038 128.09 106.048C128.112 106.064 128.176 106.089 128.28 106.121C128.385 106.166 128.452 106.193 128.48 106.202L127.999 107.325C127.539 107.07 127.122 106.959 126.748 106.991C126.164 107.039 125.642 107.367 125.183 107.975C124.818 108.457 124.624 108.899 124.601 109.301C124.584 109.661 124.71 109.942 124.977 110.144C125.214 110.324 125.487 110.355 125.796 110.239C126.048 110.138 126.36 109.948 126.733 109.671C127.309 109.232 127.766 108.89 128.103 108.644C128.67 108.28 129.135 108.072 129.5 108.022C129.948 107.953 130.38 108.075 130.795 108.389C131.114 108.63 131.333 108.941 131.453 109.323C131.567 109.712 131.578 110.105 131.488 110.503C131.371 110.997 131.12 111.483 130.735 111.961C130.387 112.421 129.972 112.771 129.487 113.011C129.126 113.181 128.725 113.28 128.284 113.308C127.851 113.342 127.456 113.294 127.099 113.164Z" fill="#ED8853"/>
<path d="M128.931 118.265L128.116 119.201L127.148 118.358L127.963 117.422L128.931 118.265ZM127.006 116.589L126.191 117.525L120.512 112.581L121.327 111.645L127.006 116.589Z" fill="#ED8853"/>
<path d="M119.013 124.312C118.438 124.323 117.914 124.158 117.442 123.815C116.975 123.479 116.49 123.006 115.987 122.396L113.629 119.606L114.587 118.796L116.919 121.554C117.321 122.03 117.696 122.388 118.046 122.628C118.388 122.875 118.754 122.991 119.144 122.978C119.613 122.971 120.058 122.777 120.479 122.397C120.831 122.063 121.036 121.695 121.097 121.291C121.173 120.849 121.079 120.399 120.814 119.941C120.672 119.672 120.354 119.246 119.862 118.664L119.853 118.654L117.729 116.14L118.676 115.339L123.538 121.09L122.696 121.801L122.057 121.045C122.066 121.098 122.066 121.257 122.057 121.52C122.026 122.203 121.717 122.817 121.131 123.362C120.477 124 119.771 124.316 119.013 124.312Z" fill="#ED8853"/>
<path d="M112.793 125.039C112.411 124.498 111.983 124.133 111.509 123.942C110.878 123.672 110.217 123.746 109.525 124.165C108.634 124.705 108.179 125.497 108.16 126.541L107.043 126.5C107.016 125.093 107.635 124.006 108.899 123.24C109.376 122.951 109.885 122.768 110.425 122.691C110.957 122.618 111.466 122.669 111.951 122.842C112.825 123.172 113.536 123.79 114.085 124.696C114.678 125.674 114.913 126.619 114.791 127.53C114.642 128.576 114.067 129.403 113.065 130.01C112.063 130.617 111.064 130.743 110.068 130.391C109.105 130.039 108.316 129.283 107.7 128.124L112.793 125.039ZM112.494 129.067C113.186 128.648 113.558 128.097 113.611 127.413C113.66 126.991 113.575 126.527 113.354 126.019L109.394 128.418C109.737 128.841 110.109 129.132 110.51 129.291C111.149 129.556 111.81 129.482 112.494 129.067Z" fill="#ED8853"/>
<path d="M100.762 134.29L101.737 133.555C102.093 133.939 102.513 134.153 102.998 134.199C103.354 134.229 103.737 134.166 104.146 134.011C104.492 133.874 104.791 133.675 105.044 133.415C105.333 133.1 105.412 132.788 105.281 132.48C105.175 132.232 104.996 132.086 104.745 132.042C104.535 132 104.243 132.004 103.87 132.052C103.513 132.093 102.997 132.162 102.32 132.259C101.703 132.351 101.169 132.332 100.718 132.201C100.054 132.019 99.5983 131.638 99.3498 131.057C99.2183 130.749 99.1698 130.411 99.2044 130.042C99.2426 129.682 99.3638 129.363 99.5679 129.083C99.9114 128.562 100.472 128.136 101.25 127.803C102.276 127.365 103.201 127.329 104.024 127.694C104.089 127.727 104.153 127.76 104.218 127.793C104.274 127.83 104.327 127.858 104.376 127.878C104.419 127.91 104.471 127.948 104.531 127.993C104.591 128.039 104.635 128.07 104.663 128.089C104.694 128.116 104.738 128.158 104.793 128.215C104.848 128.273 104.889 128.31 104.917 128.329C104.937 128.351 104.976 128.395 105.034 128.461C105.096 128.535 105.137 128.584 105.157 128.606C105.168 128.631 105.21 128.684 105.285 128.763C105.354 128.855 105.399 128.912 105.418 128.934L104.443 129.669C104.17 129.219 103.864 128.916 103.523 128.758C102.992 128.509 102.377 128.535 101.676 128.835C101.12 129.072 100.732 129.359 100.512 129.696C100.319 130.001 100.288 130.307 100.42 130.615C100.536 130.888 100.758 131.052 101.084 131.104C101.352 131.141 101.717 131.132 102.179 131.076C102.897 130.982 103.463 130.912 103.878 130.866C104.551 130.831 105.058 130.882 105.4 131.019C105.823 131.182 106.137 131.503 106.342 131.981C106.499 132.349 106.534 132.728 106.448 133.118C106.354 133.513 106.169 133.86 105.893 134.16C105.546 134.53 105.086 134.828 104.515 135.052C103.985 135.278 103.45 135.375 102.91 135.343C102.513 135.311 102.115 135.198 101.719 135.003C101.326 134.817 101.007 134.58 100.762 134.29Z" fill="#ED8853"/>
<path d="M92.0582 137.415L93.1279 136.826C93.4256 137.256 93.811 137.529 94.2842 137.643C94.6327 137.723 95.0204 137.716 95.4474 137.621C95.8091 137.534 96.1336 137.38 96.421 137.159C96.7527 136.888 96.8753 136.591 96.789 136.267C96.7195 136.007 96.5635 135.837 96.3209 135.757C96.1191 135.686 95.8299 135.648 95.4532 135.642C95.0945 135.632 94.5735 135.627 93.8902 135.627C93.2657 135.63 92.7399 135.534 92.3128 135.34C91.6816 135.066 91.2845 134.624 91.1214 134.013C91.0351 133.69 91.0354 133.348 91.1221 132.988C91.2112 132.637 91.3767 132.338 91.6186 132.091C92.0329 131.624 92.6487 131.282 93.4661 131.064C94.5439 130.776 95.4643 130.872 96.2273 131.351C96.2866 131.393 96.3459 131.435 96.4052 131.477C96.4555 131.521 96.5035 131.557 96.549 131.583C96.5879 131.621 96.6337 131.666 96.6864 131.719C96.7391 131.773 96.7781 131.81 96.8032 131.833C96.8308 131.864 96.8676 131.912 96.9138 131.976C96.9599 132.041 96.9955 132.084 97.0207 132.107C97.0368 132.131 97.0692 132.18 97.1177 132.254C97.1686 132.336 97.2022 132.39 97.2184 132.415C97.2256 132.442 97.2603 132.5 97.3226 132.589C97.3783 132.689 97.4143 132.752 97.4304 132.777L96.3608 133.365C96.1547 132.881 95.8944 132.537 95.5799 132.332C95.09 132.011 94.4768 131.948 93.7403 132.145C93.1565 132.301 92.7316 132.53 92.4658 132.832C92.2312 133.106 92.157 133.405 92.2433 133.728C92.32 134.016 92.5159 134.209 92.8309 134.307C93.0914 134.382 93.454 134.425 93.9187 134.436C94.6427 134.444 95.2134 134.456 95.6308 134.469C96.3015 134.531 96.7961 134.654 97.1148 134.838C97.5106 135.06 97.7757 135.422 97.91 135.925C98.0131 136.311 97.9943 136.691 97.8536 137.066C97.704 137.442 97.4712 137.759 97.155 138.017C96.7587 138.334 96.2617 138.563 95.6641 138.704C95.1072 138.852 94.5641 138.872 94.0347 138.763C93.6454 138.675 93.2684 138.506 92.9037 138.257C92.5413 138.017 92.2595 137.736 92.0582 137.415Z" fill="#ED8853"/>
<path d="M78.804 141.292C78.4388 140.99 78.2028 140.659 78.0959 140.3C77.9797 139.942 77.9094 139.447 77.8851 138.815L77.7204 134.189L78.9605 134.141L79.1225 138.698C79.1386 139.116 79.1884 139.44 79.2716 139.669C79.346 139.908 79.5032 140.125 79.7434 140.32C80.0514 140.588 80.4098 140.713 80.8185 140.698C81.348 140.677 81.7631 140.466 82.0639 140.063C82.3025 139.738 82.4118 139.315 82.3917 138.795L82.3858 138.642L82.2211 134.015L83.4612 133.967L83.6232 138.524C83.6394 138.942 83.6891 139.266 83.7724 139.495C83.8467 139.734 84.004 139.951 84.2441 140.147C84.5521 140.414 84.9105 140.54 85.3192 140.524C85.8487 140.503 86.2639 140.292 86.5646 139.89C86.8033 139.564 86.9125 139.141 86.8924 138.621L86.7079 133.842L87.962 133.793L88.2525 141.318L87.1378 141.361L87.1066 140.553C86.6122 141.241 85.9237 141.603 85.0413 141.637C84.326 141.665 83.7471 141.492 83.3048 141.118C83.0839 140.94 82.899 140.729 82.75 140.484C82.7242 140.54 82.7069 140.574 82.698 140.583C82.4705 140.955 82.1654 141.246 81.7828 141.456C81.4005 141.675 80.9864 141.794 80.5405 141.811C79.8252 141.838 79.2464 141.665 78.804 141.292Z" fill="#ED8853"/>
<path d="M68.5317 134.013L69.6255 134.144L69.4892 135.279C70.2243 134.459 71.2287 134.126 72.5025 134.279C73.2317 134.366 73.8021 134.645 74.2137 135.116C74.6161 135.586 74.7764 136.162 74.6944 136.845C74.5802 137.796 74.0581 138.44 73.1281 138.778C72.8933 138.862 72.6047 138.926 72.2625 138.969C71.9099 139.02 71.6206 139.051 71.3947 139.061C71.1595 139.071 70.7744 139.081 70.2394 139.091C69.6952 139.101 69.343 139.11 69.1827 139.119C69.1403 139.629 69.2697 140.033 69.5709 140.331C69.8618 140.638 70.275 140.823 70.8103 140.887C71.6964 140.994 72.4345 140.773 73.0245 140.226L73.7001 141.15C72.8608 141.901 71.809 142.201 70.5444 142.049C69.7506 141.954 69.1062 141.628 68.6111 141.073C68.0629 140.492 67.8536 139.662 67.9832 138.582L68.5317 134.013ZM69.8103 136.231C69.6981 136.386 69.6062 136.567 69.5345 136.774C69.4618 136.99 69.4154 137.181 69.3955 137.347C69.3663 137.512 69.3312 137.765 69.2902 138.107C70.5411 138.06 71.3613 138.013 71.7508 137.967C72.2142 137.929 72.6028 137.811 72.9166 137.615C73.2304 137.419 73.4078 137.15 73.4488 136.808C73.4954 136.42 73.3946 136.09 73.1465 135.817C72.8984 135.544 72.5621 135.381 72.1375 135.33C71.1129 135.207 70.3372 135.508 69.8103 136.231Z" fill="#ED8853"/>
<path d="M57.9279 139.348C57.5974 138.877 57.4423 138.35 57.4627 137.767C57.4805 137.192 57.6016 136.526 57.8259 135.768L58.8215 132.253L60.029 132.595L59.0448 136.07C58.875 136.669 58.7881 137.181 58.784 137.605C58.7709 138.026 58.879 138.395 59.1083 138.711C59.376 139.096 59.7853 139.357 60.3359 139.493C60.8087 139.598 61.2293 139.563 61.598 139.387C62.0075 139.204 62.3279 138.874 62.5592 138.398C62.7029 138.13 62.8786 137.629 63.0863 136.896L63.0901 136.882L63.987 133.716L65.181 134.054L63.129 141.299L62.069 140.999L62.3388 140.046C62.2993 140.083 62.168 140.172 61.9449 140.312C61.3608 140.668 60.6791 140.755 59.8998 140.573C59.0055 140.387 58.3482 139.979 57.9279 139.348Z" fill="#ED8853"/>
<path d="M48.4624 134.532L49.6643 134.747C49.6253 135.269 49.7539 135.723 50.0501 136.109C50.2708 136.391 50.5769 136.629 50.9685 136.823C51.3045 136.983 51.6537 137.067 52.0161 137.076C52.4447 137.073 52.727 136.919 52.8631 136.613C52.9727 136.367 52.9582 136.137 52.8196 135.922C52.7074 135.74 52.5064 135.529 52.2168 135.288C51.9441 135.054 51.5422 134.723 51.0111 134.293C50.5233 133.903 50.1743 133.498 49.964 133.079C49.6453 132.469 49.6145 131.875 49.8716 131.298C50.0077 130.992 50.2226 130.727 50.5163 130.501C50.8062 130.284 51.1229 130.156 51.4665 130.115C52.082 130.013 52.7762 130.133 53.549 130.477C54.5682 130.931 55.2238 131.584 55.516 132.437C55.5357 132.507 55.5555 132.576 55.5753 132.646C55.5866 132.712 55.6017 132.77 55.6205 132.819C55.6271 132.873 55.6341 132.937 55.6416 133.012C55.6491 133.086 55.6557 133.14 55.6614 133.173C55.6632 133.215 55.6618 133.275 55.657 133.354C55.6523 133.434 55.6527 133.49 55.6583 133.523C55.6555 133.552 55.6498 133.611 55.6412 133.698C55.6289 133.795 55.6213 133.857 55.6185 133.887C55.6071 133.912 55.5977 133.979 55.5901 134.088C55.5702 134.201 55.5588 134.272 55.5559 134.301L54.354 134.087C54.4978 133.581 54.5117 133.15 54.3958 132.793C54.2168 132.235 53.7791 131.801 53.0826 131.491C52.5306 131.245 52.0563 131.156 51.6599 131.224C51.3049 131.29 51.0594 131.476 50.9233 131.781C50.8023 132.053 50.8333 132.326 51.0163 132.601C51.1719 132.823 51.4271 133.084 51.7818 133.385C52.3394 133.847 52.7762 134.214 53.0923 134.487C53.5753 134.956 53.8827 135.363 54.0147 135.706C54.1834 136.128 54.1619 136.576 53.9502 137.052C53.7876 137.417 53.534 137.701 53.1894 137.903C52.8363 138.102 52.4558 138.203 52.0481 138.204C51.5402 138.202 51.0098 138.068 50.4569 137.801C49.9303 137.567 49.4953 137.241 49.152 136.824C48.9049 136.51 48.7177 136.142 48.5905 135.719C48.4596 135.305 48.4169 134.909 48.4624 134.532Z" fill="#ED8853"/>
<path d="M42.3697 130.483L38.9162 128.123L39.4907 127.282L42.9442 129.643L42.3697 130.483Z" fill="#ED8853"/>
<path d="M27.3907 118.721C27.5122 118.063 27.828 117.524 28.3381 117.104C28.835 116.683 29.4038 116.454 30.0444 116.417C30.6519 116.384 31.2327 116.537 31.7869 116.877C32.0857 117.071 32.4089 117.362 32.7564 117.75L35.2511 120.532L27.7754 127.234L25.4111 124.597C25.0201 124.161 24.7872 123.845 24.7122 123.65C24.4444 123.129 24.3622 122.585 24.4656 122.017C24.5427 121.449 24.8038 120.946 25.249 120.51C25.6533 120.097 26.1792 119.869 26.8268 119.826C26.9464 119.806 27.1243 119.802 27.3606 119.815C27.3012 119.457 27.3112 119.092 27.3907 118.721ZM26.0412 123.545L27.8098 125.518L30.0525 123.507L28.2839 121.535C28.1412 121.375 27.9507 121.246 27.7125 121.148C27.4674 121.056 27.2322 121.023 27.0069 121.05C26.6557 121.09 26.3521 121.225 26.096 121.455C25.8316 121.717 25.6827 122.031 25.6496 122.398C25.6066 122.824 25.7371 123.206 26.0412 123.545ZM29.1851 118.049C28.8474 118.326 28.647 118.681 28.584 119.112C28.4751 119.659 28.6131 120.147 28.9978 120.576L30.9247 122.725L33.5308 120.389L31.8832 118.551C31.5915 118.226 31.3442 117.992 31.1414 117.849C30.9316 117.713 30.6688 117.642 30.353 117.638C29.8928 117.626 29.5035 117.763 29.1851 118.049Z" fill="#ED8853"/>
<path d="M19.0326 113.059L18.3472 112.007L24.6555 107.895L25.2647 108.83L24.4469 109.363C24.6324 109.375 24.7831 109.393 24.8989 109.418C25.5834 109.549 26.1544 109.931 26.612 110.565C27.164 111.293 27.391 112.032 27.293 112.784C27.2329 113.356 27.0099 113.857 26.6238 114.286C26.2249 114.712 25.6919 115.137 25.0249 115.561L21.9642 117.556L21.2789 116.505L24.3045 114.533C25.3637 113.842 25.9238 113.161 25.9849 112.488C26.0311 112.014 25.8927 111.555 25.5698 111.111C25.2953 110.724 24.9525 110.47 24.5411 110.35C24.1247 110.222 23.6706 110.257 23.1786 110.456C22.9534 110.536 22.6462 110.703 22.2568 110.957L19.0326 113.059Z" fill="#ED8853"/>
<path d="M15.2989 102.751L16.0663 103.701C15.6948 104.07 15.4943 104.497 15.4649 104.983C15.4472 105.34 15.5225 105.72 15.6907 106.124C15.8398 106.465 16.0484 106.757 16.3165 107.001C16.6419 107.28 16.9562 107.349 17.2593 107.207C17.5036 107.093 17.6435 106.909 17.6793 106.656C17.7139 106.445 17.7008 106.154 17.6398 105.782C17.5868 105.427 17.5004 104.913 17.3809 104.241C17.2681 103.626 17.2696 103.092 17.3855 102.637C17.5445 101.968 17.9103 101.499 18.4829 101.231C18.7861 101.09 19.1224 101.03 19.492 101.052C19.8531 101.078 20.1767 101.189 20.4627 101.383C20.9948 101.709 21.4401 102.255 21.7984 103.022C22.271 104.032 22.3382 104.955 22.0002 105.79C21.9694 105.856 21.9385 105.922 21.9077 105.988C21.8729 106.045 21.8466 106.098 21.8286 106.148C21.7984 106.193 21.7616 106.246 21.7184 106.307C21.6752 106.368 21.6449 106.413 21.6275 106.442C21.6017 106.475 21.561 106.519 21.5055 106.576C21.4499 106.633 21.4135 106.675 21.3961 106.704C21.3748 106.724 21.3321 106.765 21.2681 106.825C21.1957 106.89 21.1489 106.933 21.1275 106.953C21.1023 106.965 21.0512 107.009 20.9743 107.086C20.8851 107.159 20.8298 107.205 20.8085 107.225L20.0411 106.276C20.4812 105.988 20.7744 105.671 20.9207 105.325C21.1511 104.787 21.1049 104.172 20.782 103.481C20.526 102.934 20.2261 102.556 19.8822 102.347C19.5709 102.165 19.2637 102.144 18.9606 102.286C18.6911 102.412 18.5354 102.639 18.4935 102.966C18.4657 103.236 18.4873 103.6 18.5584 104.059C18.6769 104.774 18.7661 105.337 18.8259 105.751C18.8832 106.422 18.8491 106.93 18.7235 107.276C18.575 107.705 18.265 108.03 17.7934 108.25C17.4313 108.42 17.0537 108.468 16.6605 108.395C16.2633 108.314 15.9102 108.14 15.6011 107.875C15.219 107.54 14.9064 107.091 14.6633 106.527C14.4192 106.005 14.3042 105.474 14.3184 104.934C14.3371 104.535 14.4371 104.134 14.6182 103.731C14.7908 103.333 15.0177 103.006 15.2989 102.751Z" fill="#ED8853"/>
<path d="M9.92128 101.958L9.47658 100.799L10.6743 100.34L11.119 101.498L9.92128 101.958ZM12.3037 101.044L11.859 99.8849L18.889 97.1867L19.3337 98.3453L12.3037 101.044Z" fill="#ED8853"/>
<path d="M9.18549 90.1917C9.4483 89.6804 9.8428 89.298 10.369 89.0447C10.886 88.7933 11.5321 88.5907 12.3073 88.437L15.8823 87.6841L16.141 88.9121L12.6069 89.6564C11.9974 89.7848 11.504 89.9457 11.1267 90.1392C10.7475 90.3235 10.4713 90.5907 10.298 90.9407C10.0816 91.3568 10.041 91.8404 10.176 92.3914C10.3029 92.8587 10.5299 93.2147 10.8569 93.4593C11.2098 93.7365 11.6505 93.867 12.1791 93.8506C12.4836 93.853 13.0089 93.7757 13.7548 93.6186L13.7684 93.6157L16.9887 92.9375L17.2445 94.1519L9.87605 95.7037L9.64903 94.6257L10.6178 94.4217C10.5666 94.404 10.4273 94.3288 10.1998 94.1962C9.61283 93.8448 9.21874 93.2818 9.0176 92.5072C8.76617 91.6291 8.82213 90.8573 9.18549 90.1917Z" fill="#ED8853"/>
<path d="M11.5071 84.5077C12.1637 84.4256 12.6879 84.2204 13.0798 83.892C13.6152 83.4627 13.861 82.8443 13.8174 82.0367C13.7612 80.997 13.2771 80.2225 12.3651 79.7132L12.9273 78.7472C14.1815 79.3869 14.8485 80.4448 14.9283 81.9207C14.9584 82.4777 14.8803 83.0126 14.6939 83.5254C14.507 84.0289 14.2227 84.4539 13.8411 84.8004C13.1389 85.4156 12.2587 85.7518 11.2004 85.809C10.0587 85.8708 9.11482 85.6332 8.36892 85.0963C7.51589 84.4721 7.05776 83.5752 6.99451 82.4056C6.93126 81.236 7.29001 80.2949 8.07076 79.5823C8.83445 78.8987 9.87274 78.5586 11.1856 78.562L11.5071 84.5077ZM8.09452 82.3461C8.13819 83.1537 8.4493 83.742 9.02786 84.1111C9.37609 84.3529 9.82606 84.4962 10.3778 84.5408L10.1278 79.918C9.5934 80.0214 9.1615 80.2123 8.83209 80.4908C8.29721 80.9293 8.05136 81.5478 8.09452 82.3461Z" fill="#ED8853"/>
<path d="M9.01812 69.3117L9.20481 70.5182C8.69839 70.6505 8.31049 70.9193 8.04111 71.3247C7.84644 71.6247 7.72049 71.9915 7.66326 72.4251C7.62106 72.7946 7.65459 73.1523 7.76384 73.498C7.90519 73.9025 8.14254 74.1196 8.47589 74.1493C8.74443 74.1732 8.95762 74.0848 9.11545 73.8842C9.25148 73.719 9.38648 73.4603 9.52045 73.1082C9.65278 72.7747 9.83615 72.287 10.0706 71.6452C10.2815 71.0573 10.5512 70.596 10.8796 70.2612C11.3533 69.762 11.905 69.5404 12.5347 69.5964C12.868 69.626 13.1889 69.7433 13.4974 69.948C13.7966 70.1519 14.021 70.4099 14.1706 70.7219C14.467 71.2709 14.5778 71.9667 14.5029 72.8094C14.4041 73.9205 13.9988 74.7525 13.287 75.3051C13.2273 75.3465 13.1676 75.3879 13.1079 75.4292C13.0491 75.4613 12.9995 75.4942 12.9591 75.528C12.9104 75.5516 12.8519 75.5791 12.7838 75.6104C12.7157 75.6417 12.6669 75.6653 12.6375 75.6814C12.5988 75.6966 12.5412 75.7148 12.4647 75.736C12.3881 75.7572 12.3351 75.7758 12.3057 75.7919C12.2771 75.7986 12.2199 75.8122 12.1341 75.8326C12.039 75.8521 11.9772 75.8653 11.9486 75.8721C11.9208 75.8696 11.8543 75.8824 11.7492 75.9104C11.6356 75.9283 11.5645 75.9406 11.5359 75.9474L11.3492 74.7408C11.8743 74.7129 12.2869 74.5862 12.587 74.3609C13.0568 74.0107 13.3254 73.4559 13.3929 72.6966C13.4465 72.0948 13.3769 71.6172 13.1844 71.2641C13.007 70.9497 12.7516 70.7777 12.4183 70.748C12.122 70.7217 11.8735 70.8396 11.6728 71.1017C11.5134 71.3209 11.349 71.6469 11.1799 72.0798C10.9236 72.757 10.7176 73.2894 10.5619 73.6768C10.2744 74.2859 9.98945 74.7086 9.70711 74.9448C9.36346 75.2409 8.93235 75.3659 8.4138 75.3197C8.01563 75.2843 7.66479 75.1365 7.36128 74.8761C7.0586 74.6066 6.84039 74.2792 6.70666 73.894C6.54411 73.4128 6.49928 72.8675 6.57215 72.258C6.62321 71.6839 6.79053 71.1668 7.0741 70.7067C7.29059 70.3713 7.57828 70.0749 7.93716 69.8175C8.28678 69.5593 8.6471 69.3907 9.01812 69.3117Z" fill="#ED8853"/>
<path d="M10.3705 60.1504L10.3849 61.3712C9.86488 61.4306 9.4429 61.642 9.11896 62.0052C8.88385 62.2747 8.70735 62.62 8.58946 63.0412C8.49547 63.4011 8.47814 63.7599 8.53746 64.1175C8.62025 64.538 8.82455 64.7865 9.15037 64.8629C9.41284 64.9245 9.63637 64.8671 9.82097 64.6908C9.97897 64.5464 10.1492 64.3094 10.3315 63.9798C10.5096 63.6683 10.7601 63.2114 11.0828 62.6092C11.3747 62.057 11.7068 61.6384 12.0792 61.3533C12.6187 60.9261 13.1962 60.7846 13.8116 60.929C14.1374 61.0055 14.4386 61.1668 14.715 61.4131C14.9824 61.6573 15.1681 61.9443 15.2721 62.2743C15.4881 62.8597 15.4994 63.5642 15.3062 64.3878C15.0514 65.4739 14.5326 66.2402 13.7499 66.6868C13.685 66.7193 13.6201 66.7518 13.5552 66.7843C13.4924 66.8078 13.4386 66.8334 13.3939 66.8611C13.3423 66.8776 13.2806 66.8965 13.2087 66.9179C13.1369 66.9392 13.0852 66.9558 13.0538 66.9675C13.0134 66.9771 12.9538 66.987 12.875 66.9972C12.7962 67.0073 12.7411 67.0183 12.7097 67.03C12.6805 67.0327 12.6219 67.038 12.5341 67.0461C12.4372 67.052 12.3741 67.0563 12.3449 67.059C12.3177 67.0526 12.2501 67.0559 12.1421 67.0687C12.0271 67.0704 11.955 67.0725 11.9257 67.0752L11.9113 65.8544C12.4351 65.9009 12.8615 65.8338 13.1903 65.6531C13.7049 65.3728 14.0492 64.8616 14.2233 64.1194C14.3613 63.5311 14.36 63.0486 14.2192 62.6718C14.088 62.3355 13.8595 62.1291 13.5337 62.0526C13.2441 61.9847 12.9814 62.0663 12.7458 62.2975C12.5569 62.4919 12.3482 62.7915 12.1196 63.1962C11.7703 63.8304 11.4911 64.3283 11.2822 64.6898C10.9115 65.2522 10.5697 65.6304 10.2569 65.8243C9.87484 66.0689 9.4304 66.1317 8.92356 66.0128C8.53439 65.9215 8.20795 65.7256 7.94426 65.425C7.6827 65.1154 7.51292 64.7604 7.43494 64.3602C7.342 63.861 7.37464 63.3148 7.53288 62.7217C7.66453 62.1605 7.90321 61.6723 8.24894 61.2568C8.51064 60.9554 8.83731 60.7026 9.22896 60.4985C9.61155 60.2922 9.99208 60.1762 10.3705 60.1504Z" fill="#ED8853"/>
<path d="M13.1624 46.7028C13.6017 46.5248 14.0046 46.4739 14.371 46.5501C14.7416 46.6179 15.2106 46.791 15.7782 47.0694L19.9286 49.1205L19.3822 50.2348L15.2943 48.2144C14.9187 48.0302 14.6102 47.9203 14.3688 47.8847C14.1231 47.8367 13.8573 47.872 13.5714 47.9906C13.19 48.1349 12.9092 48.3906 12.7291 48.7579C12.4958 49.2336 12.4848 49.6994 12.6961 50.1551C12.8694 50.5196 13.1897 50.8165 13.6571 51.0458L13.7949 51.1133L17.9453 53.1644L17.3988 54.2787L13.311 52.2583C12.9354 52.0741 12.6269 51.9642 12.3854 51.9286C12.1398 51.8806 11.874 51.9159 11.588 52.0345C11.2066 52.1788 10.9259 52.4345 10.7457 52.8018C10.5124 53.2776 10.5014 53.7433 10.7128 54.199C10.886 54.5635 11.2064 54.8604 11.6738 55.0897L15.9681 57.1958L15.4154 58.3226L8.65475 55.0068L9.14598 54.0052L9.87213 54.3614C9.50042 53.5992 9.50901 52.8217 9.8979 52.0287C10.2131 51.3861 10.6401 50.9587 11.179 50.7467C11.4401 50.6366 11.714 50.5742 12.0008 50.5596C11.963 50.51 11.9419 50.4789 11.9377 50.4665C11.7186 50.0898 11.6074 49.6832 11.6041 49.2467C11.5924 48.8061 11.6848 48.3855 11.8813 47.9848C12.1965 47.3422 12.6235 46.9148 13.1624 46.7028Z" fill="#ED8853"/>
<path d="M24.2643 41.3363L23.6326 42.2388L22.6958 41.5832C23.0722 42.6182 22.8925 43.6612 22.1569 44.7123C21.7359 45.314 21.2207 45.6853 20.6114 45.8263C20.0075 45.9596 19.4237 45.829 18.8601 45.4346C18.0756 44.8856 17.7538 44.1214 17.8945 43.1419C17.9311 42.8952 18.011 42.6107 18.1344 42.2886C18.2554 41.9534 18.3647 41.6838 18.4621 41.4797C18.5649 41.268 18.7378 40.9237 18.9807 40.4469C19.2289 39.9626 19.3869 39.6476 19.4547 39.5021C19.0251 39.2242 18.6077 39.1477 18.2026 39.2727C17.7951 39.3847 17.4368 39.6615 17.1277 40.1033C16.616 40.8345 16.4622 41.5892 16.6664 42.3675L15.5332 42.5276C15.2665 41.4332 15.4983 40.3643 16.2285 39.3209C16.687 38.6658 17.2779 38.2511 18.0014 38.0766C18.7721 37.8671 19.603 38.0742 20.4941 38.6978L24.2643 41.3363ZM21.7054 41.4177C21.6216 41.2456 21.5054 41.0792 21.3569 40.9185C21.2007 40.7525 21.0541 40.6215 20.917 40.5256C20.7852 40.422 20.5785 40.2716 20.2967 40.0744C19.7477 41.1993 19.402 41.9446 19.2596 42.3101C19.0746 42.7367 18.9947 43.1346 19.0198 43.504C19.045 43.8733 19.1985 44.1566 19.4803 44.3538C19.8002 44.5777 20.1391 44.6447 20.497 44.5548C20.855 44.4649 21.1565 44.2448 21.4017 43.8944C21.9934 43.049 22.0946 42.2234 21.7054 41.4177Z" fill="#ED8853"/>
<path d="M24.6826 29.2925C25.2534 29.223 25.7912 29.3348 26.2962 29.6281C26.7945 29.9149 27.3249 30.3359 27.8872 30.8911L30.5171 33.4271L29.6459 34.3305L27.0462 31.8235C26.5978 31.3912 26.1877 31.0732 25.8158 30.8696C25.4504 30.6592 25.0742 30.5806 24.6873 30.6336C24.2215 30.6881 23.7984 30.9259 23.4182 31.347C23.1027 31.7144 22.9355 32.102 22.9166 32.51C22.8853 32.9576 23.0248 33.3956 23.335 33.8239C23.5039 34.0772 23.8628 34.4685 24.4115 34.9976L24.4216 35.0073L26.7905 37.2917L25.929 38.185L20.5086 32.9581L21.2733 32.1651L21.986 32.8523C21.9719 32.8 21.9559 32.6425 21.9379 32.3798C21.8992 31.6968 22.144 31.0546 22.6722 30.4533C23.2577 29.7523 23.9279 29.3654 24.6826 29.2925Z" fill="#ED8853"/>
<path d="M33.2004 23.3494L32.4488 24.3115C32.0056 24.033 31.5441 23.9343 31.0642 24.0154C30.7123 24.0789 30.3587 24.2382 30.0035 24.4933C29.7052 24.7156 29.4675 24.9849 29.2903 25.3012C29.0922 25.6812 29.0964 26.0028 29.303 26.2661C29.4695 26.4782 29.6798 26.5731 29.9341 26.5508C30.1477 26.5368 30.4286 26.4581 30.777 26.3148C31.1107 26.1829 31.5917 25.9826 32.22 25.7141C32.7929 25.4654 33.3138 25.3461 33.7827 25.3563C34.4709 25.3599 35.0101 25.6103 35.4004 26.1076C35.607 26.3709 35.7412 26.685 35.8032 27.05C35.8593 27.4077 35.8249 27.7479 35.7 28.0705C35.5028 28.6625 35.0714 29.2196 34.4059 29.7419C33.5283 30.4306 32.6444 30.7047 31.7543 30.5642C31.6833 30.549 31.6123 30.5339 31.5413 30.5187C31.4776 30.4977 31.4196 30.4841 31.3674 30.4778C31.3168 30.4585 31.2567 30.4347 31.1873 30.4065C31.1179 30.3782 31.0673 30.3589 31.0354 30.3484C30.9978 30.3306 30.9451 30.3011 30.8773 30.2598C30.8094 30.2185 30.7596 30.1927 30.7277 30.1822C30.7032 30.166 30.6541 30.1336 30.5805 30.085C30.5012 30.0291 30.4493 29.993 30.4247 29.9768C30.4075 29.9549 30.3527 29.9152 30.2603 29.8577C30.1695 29.7871 30.1118 29.7438 30.0873 29.7276L30.839 28.7654C31.2189 29.1291 31.5936 29.3431 31.9633 29.4076C32.5402 29.5102 33.1285 29.3263 33.7282 28.8557C34.2035 28.4826 34.504 28.105 34.6295 27.7229C34.7373 27.3783 34.6879 27.0744 34.4813 26.8112C34.2976 26.5771 34.0416 26.4767 33.7131 26.51C33.4442 26.5437 33.094 26.6472 32.6627 26.8203C31.9936 27.0971 31.4646 27.3114 31.0755 27.4631C30.4347 27.6705 29.9316 27.7522 29.5661 27.7081C29.115 27.6604 28.7288 27.4317 28.4074 27.0222C28.1606 26.7077 28.0282 26.3507 28.0102 25.9513C27.9994 25.5461 28.0887 25.1629 28.2779 24.8017C28.5173 24.3538 28.8841 23.9478 29.3782 23.5837C29.8317 23.2278 30.3231 22.9958 30.8527 22.8875C31.2453 22.8157 31.6583 22.8225 32.0917 22.9078C32.5193 22.9859 32.8888 23.1331 33.2004 23.3494Z" fill="#ED8853"/>
<path d="M43.6016 17.48L47.4361 15.8073L47.8431 16.7403L44.0087 18.413L43.6016 17.48Z" fill="#ED8853"/>
<path d="M61.6108 10.9826C62.1033 11.436 62.3914 11.9903 62.4752 12.6456C62.5665 13.2902 62.4575 13.8936 62.1481 14.4558C61.8523 14.9873 61.4131 15.3973 60.8305 15.6855C60.5071 15.8351 60.0888 15.9538 59.5757 16.0415L55.892 16.6714L54.1999 6.7749L57.6911 6.17795C58.2684 6.07925 58.6595 6.0501 58.8645 6.0905C59.4485 6.14154 59.953 6.3618 60.378 6.75126C60.8182 7.11927 61.1045 7.6079 61.237 8.21715C61.3708 8.77901 61.2837 9.34562 60.9759 9.91698C60.929 10.0287 60.8372 10.1812 60.7004 10.3743C61.0357 10.5151 61.3392 10.7178 61.6108 10.9826ZM58.2459 7.27144L55.6343 7.71797L56.142 10.6869L58.7535 10.2404C58.9643 10.2043 59.1748 10.1118 59.3851 9.96263C59.5938 9.80433 59.7466 9.62258 59.8436 9.41738C59.9966 9.09885 60.0441 8.77006 59.9862 8.43101C59.9052 8.06761 59.7183 7.77419 59.4254 7.55076C59.0881 7.28777 58.6949 7.19466 58.2459 7.27144ZM61.2244 12.8595C61.1691 12.4257 60.9757 12.0673 60.6444 11.7845C60.2394 11.401 59.7527 11.2579 59.1846 11.355L56.3394 11.8415L56.9293 15.2915L59.3622 14.8755C59.7928 14.8019 60.1226 14.7172 60.3514 14.6215C60.5787 14.5166 60.7782 14.3316 60.9497 14.0665C61.2049 13.6833 61.2964 13.281 61.2244 12.8595Z" fill="#ED8853"/>
<path d="M70.8807 6.91145L72.1355 6.89207L72.2518 14.4212L71.1363 14.4385L71.1213 13.4625C71.012 13.6129 70.9162 13.7306 70.8339 13.8155C70.3582 14.325 69.7303 14.6043 68.9501 14.6535C68.0402 14.7326 67.2933 14.5303 66.7093 14.0466C66.2576 13.691 65.953 13.2354 65.7957 12.68C65.6475 12.1152 65.572 11.4376 65.569 10.6474L65.5126 6.99434L66.7675 6.97496L66.8233 10.5862C66.8428 11.8503 67.1207 12.6875 67.657 13.0976C68.0334 13.3893 68.4956 13.5169 69.0436 13.4806C69.5173 13.4547 69.9147 13.2998 70.2358 13.0159C70.5661 12.7319 70.7784 12.3288 70.8726 11.8067C70.9247 11.5735 70.9472 11.2245 70.9401 10.7597L70.8807 6.91145Z" fill="#ED8853"/>
<path d="M81.8068 9.24867L80.5939 9.38883C80.4812 8.8777 80.2275 8.47975 79.8328 8.19499C79.5405 7.98892 79.1788 7.84896 78.7477 7.77511C78.3801 7.71873 78.0214 7.73848 77.6718 7.83436C77.2621 7.96005 77.036 8.18888 76.9936 8.52085C76.9594 8.78826 77.0395 9.00469 77.2339 9.17013C77.3938 9.3124 77.647 9.45725 77.9937 9.60466C78.3219 9.74971 78.8022 9.9517 79.4345 10.2106C80.0138 10.444 80.4645 10.7312 80.7864 11.0723C81.267 11.5648 81.4672 12.1246 81.387 12.7517C81.3446 13.0837 81.2151 13.3998 80.9987 13.7002C80.7834 13.9913 80.517 14.2056 80.1995 14.3431C79.6395 14.6182 78.9399 14.7022 78.1008 14.5949C76.9942 14.4534 76.1785 14.0164 75.6536 13.2839C75.6146 13.2227 75.5755 13.1615 75.5365 13.1002C75.5067 13.0402 75.4757 12.9894 75.4435 12.9478C75.4217 12.8981 75.3965 12.8387 75.3679 12.7694C75.3393 12.7001 75.3175 12.6505 75.3026 12.6205C75.2889 12.5812 75.2729 12.523 75.2547 12.4457C75.2364 12.3684 75.2199 12.3147 75.205 12.2847C75.1993 12.2558 75.1879 12.1981 75.1709 12.1116C75.155 12.0159 75.1442 11.9536 75.1385 11.9247C75.1421 11.8971 75.1319 11.8301 75.1079 11.724C75.0944 11.6098 75.0848 11.5383 75.0791 11.5094L76.292 11.3693C76.2997 11.8951 76.4104 12.3123 76.624 12.6207C76.9559 13.1036 77.4999 13.3934 78.2561 13.4901C78.8555 13.5667 79.3353 13.5156 79.6956 13.3368C80.0166 13.1716 80.1983 12.9231 80.2407 12.5911C80.2785 12.296 80.1702 12.0432 79.916 11.8326C79.7031 11.6648 79.3836 11.4881 78.9575 11.3024C78.2907 11.0203 77.7667 10.794 77.3855 10.6234C76.7879 10.3127 76.3765 10.0118 76.1513 9.72057C75.8687 9.36578 75.7603 8.93019 75.8264 8.4138C75.8771 8.01728 76.0383 7.67239 76.3101 7.37911C76.5911 7.08702 76.9267 6.88156 77.3167 6.76273C77.8037 6.61881 78.3504 6.59498 78.9566 6.69123C79.5283 6.76432 80.0386 6.9514 80.4875 7.25245C80.8143 7.48168 81.0994 7.78055 81.3429 8.14906C81.5875 8.50836 81.7421 8.87489 81.8068 9.24867Z" fill="#ED8853"/>
<path d="M85.1588 5.08575L86.3761 5.32759L86.1261 6.58589L84.9088 6.34406L85.1588 5.08575ZM84.6616 7.58869L85.8788 7.83052L84.4115 15.2162L83.1943 14.9744L84.6616 7.58869Z" fill="#ED8853"/>
<path d="M95.3136 10.6399C95.6077 11.1339 95.7226 11.6711 95.6583 12.2516C95.5972 12.8233 95.4263 13.4784 95.1455 14.2171L93.8877 17.6473L92.7095 17.2152L93.9528 13.8244C94.1673 13.2396 94.2925 12.736 94.3286 12.3135C94.3734 11.8943 94.2934 11.5184 94.0886 11.1858C93.8506 10.7817 93.4622 10.4908 92.9234 10.313C92.4599 10.1728 92.0378 10.1764 91.6569 10.3239C91.2348 10.4761 90.8904 10.7805 90.6239 11.2373C90.4604 11.4942 90.2475 11.9805 89.985 12.6962L89.9802 12.7093L88.8473 15.799L87.6821 15.3718L90.2744 8.30201L91.3087 8.68126L90.9679 9.6108C91.01 9.57676 91.1477 9.4985 91.3807 9.37602C91.9899 9.06473 92.6762 9.02924 93.4397 9.26957C94.3174 9.52211 94.9421 9.97889 95.3136 10.6399Z" fill="#ED8853"/>
<path d="M99.066 15.6621C98.7857 16.2615 98.6801 16.8145 98.7493 17.3211C98.8274 18.0029 99.2198 18.5404 99.9265 18.9336C100.836 19.4399 101.75 19.4428 102.667 18.9423L103.185 19.9327C101.975 20.6533 100.724 20.6543 99.4328 19.9356C98.9454 19.6643 98.5344 19.3133 98.1997 18.8823C97.8731 18.4559 97.6649 17.989 97.5749 17.4814C97.4284 16.5594 97.6128 15.6354 98.1281 14.7093C98.6841 13.7102 99.3879 13.038 100.24 12.6927C101.222 12.3033 102.225 12.3934 103.249 12.963C104.273 13.5325 104.878 14.3374 105.065 15.3778C105.237 16.3883 104.971 17.4482 104.269 18.5574L99.066 15.6621ZM102.713 13.9256C102.007 13.5323 101.343 13.4822 100.722 13.7752C100.332 13.9411 99.9713 14.2456 99.6396 14.6887L103.685 16.9398C103.882 16.4325 103.951 15.9653 103.891 15.5381C103.804 14.8518 103.412 14.3143 102.713 13.9256Z" fill="#ED8853"/>
<path d="M113.294 21.6669L112.174 21.1818C112.332 20.6828 112.311 20.2113 112.111 19.7673C111.961 19.4427 111.718 19.1407 111.382 18.8612C111.092 18.6285 110.771 18.4663 110.42 18.3745C110.003 18.2784 109.693 18.3636 109.49 18.6298C109.326 18.8443 109.288 19.0718 109.373 19.3123C109.441 19.5154 109.587 19.7675 109.814 20.0685C110.026 20.3583 110.341 20.7733 110.759 21.3137C111.144 21.8055 111.39 22.2796 111.499 22.7359C111.669 23.4028 111.562 23.9877 111.179 24.4907C110.976 24.7569 110.706 24.966 110.368 25.1178C110.036 25.2623 109.699 25.3147 109.355 25.275C108.732 25.2333 108.084 24.9562 107.411 24.4437C106.524 23.7678 106.036 22.9815 105.948 22.0847C105.944 22.0121 105.941 21.9396 105.938 21.8671C105.942 21.8001 105.941 21.7406 105.934 21.6885C105.94 21.6347 105.948 21.5706 105.958 21.4963C105.967 21.422 105.973 21.3681 105.975 21.3346C105.983 21.2938 105.998 21.2353 106.021 21.1593C106.044 21.0832 106.057 21.0284 106.059 20.995C106.068 20.9672 106.087 20.9115 106.116 20.8281C106.15 20.7372 106.172 20.6779 106.181 20.65C106.198 20.6279 106.223 20.5648 106.255 20.4609C106.301 20.3553 106.328 20.2885 106.337 20.2607L107.458 20.7458C107.202 21.2051 107.089 21.6216 107.12 21.9956C107.166 22.5798 107.492 23.1027 108.098 23.5646C108.579 23.9306 109.02 24.1263 109.422 24.1515C109.782 24.169 110.064 24.0447 110.267 23.7784C110.447 23.5417 110.48 23.2686 110.365 22.9591C110.264 22.7074 110.076 22.3946 109.8 22.0207C109.363 21.443 109.023 20.985 108.778 20.6467C108.416 20.0788 108.21 19.6125 108.161 19.2477C108.093 18.7991 108.217 18.3677 108.533 17.9535C108.775 17.6355 109.087 17.4174 109.469 17.2993C109.858 17.1869 110.252 17.1768 110.649 17.2689C111.142 17.3878 111.628 17.6405 112.105 18.027C112.563 18.3761 112.912 18.7933 113.15 19.2785C113.318 19.6404 113.416 20.0418 113.442 20.4826C113.474 20.9161 113.425 21.3109 113.294 21.6669Z" fill="#ED8853"/>
<path d="M120.161 27.5212L119.118 26.8863C119.343 26.4138 119.387 25.944 119.251 25.4768C119.147 25.1346 118.948 24.8019 118.653 24.4787C118.398 24.2083 118.103 24.0034 117.768 23.8641C117.367 23.7115 117.049 23.7531 116.811 23.9889C116.62 24.1788 116.55 24.3988 116.602 24.6487C116.64 24.8592 116.751 25.1292 116.934 25.4585C117.104 25.7746 117.358 26.2291 117.698 26.822C118.012 27.3622 118.191 27.8657 118.235 28.3326C118.311 29.0165 118.125 29.5812 117.677 30.0265C117.439 30.2623 117.143 30.4322 116.787 30.536C116.438 30.6334 116.097 30.6387 115.762 30.552C115.151 30.4249 114.547 30.0612 113.951 29.4608C113.165 28.6691 112.79 27.8231 112.827 26.9226C112.833 26.8503 112.84 26.7781 112.847 26.7058C112.861 26.6401 112.867 26.5809 112.868 26.5284C112.881 26.4758 112.898 26.4134 112.917 26.3412C112.937 26.269 112.951 26.2164 112.958 26.1836C112.971 26.1442 112.994 26.0884 113.027 26.0162C113.06 25.944 113.08 25.8915 113.087 25.8587C113.1 25.8324 113.127 25.7799 113.166 25.7012C113.213 25.6159 113.242 25.5601 113.256 25.5339C113.275 25.5142 113.309 25.4552 113.355 25.3568C113.414 25.2584 113.451 25.196 113.464 25.1698L114.507 25.8047C114.19 26.2242 114.021 26.6213 114 26.9959C113.965 27.5808 114.216 28.1438 114.753 28.6848C115.179 29.1136 115.589 29.3682 115.983 29.4485C116.337 29.5155 116.633 29.4311 116.871 29.1953C117.082 28.9858 117.152 28.7198 117.081 28.3974C117.016 28.1342 116.873 27.7985 116.651 27.3901C116.298 26.7578 116.024 26.2572 115.828 25.8883C115.547 25.276 115.408 24.7857 115.409 24.4176C115.404 23.964 115.587 23.5538 115.956 23.1871C116.24 22.9054 116.579 22.7325 116.974 22.6682C117.375 22.6105 117.766 22.6546 118.146 22.8006C118.619 22.9864 119.065 23.3035 119.484 23.7521C119.89 24.1611 120.178 24.6223 120.347 25.1356C120.464 25.5173 120.505 25.9283 120.47 26.3686C120.443 26.8024 120.339 27.1866 120.161 27.5212Z" fill="#ED8853"/>
<path d="M130.269 37.2417C130.187 37.7086 130.016 38.0771 129.757 38.3474C129.503 38.6255 129.108 38.9313 128.57 39.2647L124.63 41.695L123.975 40.6406L127.857 38.2471C128.212 38.0265 128.469 37.8233 128.627 37.6375C128.798 37.4547 128.909 37.2106 128.96 36.9053C129.04 36.5055 128.972 36.1318 128.757 35.7843C128.477 35.3341 128.088 35.0777 127.59 35.0152C127.189 34.9687 126.767 35.0827 126.325 35.3573L126.195 35.4382L122.254 37.8685L121.599 36.8141L125.481 34.4206C125.836 34.2 126.093 33.9968 126.251 33.811C126.422 33.6282 126.533 33.3841 126.584 33.0788C126.664 32.679 126.597 32.3053 126.381 31.9578C126.101 31.5076 125.712 31.2512 125.214 31.1887C124.813 31.1422 124.391 31.2562 123.949 31.5308L119.886 34.0538L119.224 32.9876L125.621 29.0156L126.209 29.9633L125.522 30.3899C126.365 30.4791 127.02 30.8989 127.486 31.6492C127.863 32.2573 127.999 32.846 127.893 33.4153C127.848 33.695 127.755 33.9603 127.616 34.2111C127.678 34.2054 127.715 34.2041 127.728 34.207C128.164 34.2211 128.567 34.3426 128.939 34.5713C129.319 34.7951 129.626 35.0966 129.862 35.4757C130.239 36.0838 130.375 36.6725 130.269 37.2417Z" fill="#ED8853"/>
<path d="M128.953 49.5632L128.523 48.5486L129.577 48.1031C128.5 47.8722 127.712 47.166 127.212 45.9844C126.926 45.308 126.885 44.6743 127.089 44.0832C127.297 43.5007 127.717 43.0755 128.351 42.8075C129.233 42.4345 130.051 42.5677 130.806 43.2073C130.996 43.3693 131.195 43.5882 131.402 43.8638C131.622 44.1444 131.792 44.3802 131.913 44.5712C132.038 44.7708 132.238 45.1001 132.513 45.5591C132.791 46.0268 132.974 46.3279 133.061 46.4626C133.525 46.2463 133.812 45.9333 133.921 45.5237C134.043 45.119 133.998 44.6684 133.788 44.1718C133.441 43.3498 132.883 42.8186 132.115 42.5782L132.581 41.533C133.65 41.8884 134.433 42.6526 134.929 43.8256C135.24 44.562 135.278 45.2829 135.041 45.9886C134.809 46.7529 134.192 47.3469 133.191 47.7706L128.953 49.5632ZM130.243 47.3519C130.433 47.3724 130.636 47.3623 130.851 47.3218C131.075 47.2777 131.263 47.2231 131.418 47.1579C131.575 47.1013 131.813 47.006 132.129 46.872C131.468 45.8093 131.02 45.1205 130.786 44.8057C130.523 44.4224 130.228 44.1433 129.902 43.9684C129.576 43.7935 129.254 43.7731 128.937 43.907C128.578 44.0591 128.341 44.3107 128.227 44.6617C128.113 45.0127 128.139 45.3852 128.306 45.779C128.708 46.7294 129.354 47.2537 130.243 47.3519Z" fill="#ED8853"/>
<path d="M138.833 55.991C138.59 56.512 138.21 56.9091 137.694 57.1823C137.187 57.4532 136.549 57.6802 135.78 57.8634L132.236 58.7519L131.931 57.5345L135.434 56.6562C136.038 56.5047 136.525 56.3252 136.895 56.1175C137.267 55.9188 137.533 55.6413 137.693 55.285C137.893 54.8609 137.915 54.3762 137.759 53.8306C137.615 53.3685 137.374 53.0215 137.038 52.7894C136.675 52.5259 136.23 52.4123 135.702 52.4488C135.398 52.458 134.876 52.5553 134.136 52.7407L134.123 52.7441L130.931 53.5444L130.629 52.3406L137.933 50.5093L138.201 51.5779L137.24 51.8187C137.292 51.8344 137.434 51.9042 137.667 52.0281C138.267 52.3568 138.682 52.9045 138.912 53.6709C139.197 54.5388 139.171 55.3122 138.833 55.991Z" fill="#ED8853"/>
<path d="M139.393 66.6154L138.978 65.4669C139.45 65.2401 139.779 64.9019 139.966 64.4524C140.099 64.1207 140.153 63.7366 140.126 63.3001C140.096 62.9293 139.995 62.5847 139.822 62.2663C139.605 61.8963 139.331 61.7287 138.998 61.7635C138.73 61.7915 138.537 61.9191 138.421 62.1462C138.319 62.3345 138.236 62.6142 138.172 62.9854C138.106 63.3381 138.02 63.8519 137.913 64.5267C137.818 65.1442 137.642 65.6486 137.384 66.0401C137.014 66.6208 136.515 66.944 135.887 67.0097C135.554 67.0445 135.216 66.9909 134.874 66.8491C134.542 66.7062 134.272 66.4961 134.065 66.2185C133.669 65.7365 133.427 65.0748 133.339 64.2334C133.223 63.1239 133.462 62.2297 134.055 61.5509C134.105 61.4989 134.156 61.4468 134.206 61.3948C134.258 61.352 134.3 61.3102 134.334 61.2694C134.377 61.2368 134.429 61.1986 134.49 61.1549C134.551 61.1111 134.594 61.0786 134.62 61.0572C134.655 61.0348 134.708 61.0059 134.779 60.9704C134.85 60.935 134.899 60.9066 134.924 60.8852C134.951 60.873 135.005 60.8487 135.085 60.8123C135.175 60.7749 135.233 60.7501 135.259 60.738C135.287 60.7351 135.35 60.7098 135.448 60.6622C135.556 60.6229 135.623 60.5972 135.65 60.585L136.064 61.7335C135.554 61.8615 135.174 62.0649 134.922 62.3435C134.528 62.7772 134.371 63.3732 134.45 64.1314C134.513 64.7323 134.673 65.1877 134.929 65.4974C135.164 65.772 135.447 65.8919 135.78 65.8571C136.076 65.8262 136.297 65.6629 136.444 65.3672C136.559 65.1215 136.657 64.77 136.741 64.3127C136.862 63.599 136.962 63.037 137.041 62.6269C137.207 61.974 137.405 61.5046 137.637 61.2187C137.918 60.8622 138.317 60.6569 138.835 60.6028C139.232 60.5613 139.605 60.6392 139.953 60.8366C140.301 61.0431 140.578 61.3227 140.783 61.6751C141.035 62.1162 141.183 62.6428 141.229 63.255C141.289 63.8282 141.223 64.3678 141.033 64.8737C140.885 65.2444 140.66 65.5904 140.357 65.9118C140.063 66.2322 139.742 66.4668 139.393 66.6154Z" fill="#ED8853"/>
</svg>
